<svg width="27" height="27" viewBox="0 0 27 27" fill="none" xmlns="http://www.w3.org/2000/svg">
<path d="M13.5 27C20.9566 27 27 20.9566 27 13.5C27 6.04336 20.9566 0 13.5 0C6.04336 0 0 6.04336 0 13.5C0 20.9566 6.04336 27 13.5 27ZM11.3906 17.7188H12.6562V14.3438H11.3906C10.6893 14.3438 10.125 13.7795 10.125 13.0781C10.125 12.3768 10.6893 11.8125 11.3906 11.8125H13.9219C14.6232 11.8125 15.1875 12.3768 15.1875 13.0781V17.7188H15.6094C16.3107 17.7188 16.875 18.283 16.875 18.9844C16.875 19.6857 16.3107 20.25 15.6094 20.25H11.3906C10.6893 20.25 10.125 19.6857 10.125 18.9844C10.125 18.283 10.6893 17.7188 11.3906 17.7188ZM13.5 10.125C12.5666 10.125 11.8125 9.3709 11.8125 8.4375C11.8125 7.5041 12.5666 6.75 13.5 6.75C14.4334 6.75 15.1875 7.5041 15.1875 8.4375C15.1875 9.3709 14.4334 10.125 13.5 10.125Z" fill="#4B4B4B"/>
</svg>
