<svg width="21" height="28" viewBox="0 0 21 28" fill="none" xmlns="http://www.w3.org/2000/svg">
<path d="M3.5 0C1.56953 0 0 1.56953 0 3.5V24.5C0 26.4305 1.56953 28 3.5 28H17.5C19.4305 28 21 26.4305 21 24.5V8.75H14C13.032 8.75 12.25 7.96797 12.25 7V0H3.5ZM14 0V7H21L14 0ZM4.375 3.5H7.875C8.35625 3.5 8.75 3.89375 8.75 4.375C8.75 4.85625 8.35625 5.25 7.875 5.25H4.375C3.89375 5.25 3.5 4.85625 3.5 4.375C3.5 3.89375 3.89375 3.5 4.375 3.5ZM4.375 7H7.875C8.35625 7 8.75 7.39375 8.75 7.875C8.75 8.35625 8.35625 8.75 7.875 8.75H4.375C3.89375 8.75 3.5 8.35625 3.5 7.875C3.5 7.39375 3.89375 7 4.375 7ZM5.25 12.25H15.75C16.718 12.25 17.5 13.032 17.5 14V17.5C17.5 18.468 16.718 19.25 15.75 19.25H5.25C4.28203 19.25 3.5 18.468 3.5 17.5V14C3.5 13.032 4.28203 12.25 5.25 12.25ZM5.25 14V17.5H15.75V14H5.25ZM13.125 22.75H16.625C17.1063 22.75 17.5 23.1437 17.5 23.625C17.5 24.1063 17.1063 24.5 16.625 24.5H13.125C12.6437 24.5 12.25 24.1063 12.25 23.625C12.25 23.1437 12.6437 22.75 13.125 22.75Z" fill="#4B4B4B"/>
</svg>
