<svg width="28" height="28" viewBox="0 0 28 28" fill="none" xmlns="http://www.w3.org/2000/svg">
<path d="M28 14C28 21.7328 21.7328 28 14 28C6.26719 28 0 21.7328 0 14C0 6.26719 6.26719 0 14 0C21.7328 0 28 6.26719 28 14ZM17.5 19.25C17.5 17.7789 16.5977 16.5211 15.3125 16.007V4.8125C15.3125 4.08516 14.7273 3.5 14 3.5C13.2727 3.5 12.6875 4.08516 12.6875 4.8125V16.007C11.4023 16.5266 10.5 17.7844 10.5 19.25C10.5 21.1805 12.0695 22.75 14 22.75C15.9305 22.75 17.5 21.1805 17.5 19.25ZM7.875 9.625C8.84297 9.625 9.625 8.84297 9.625 7.875C9.625 6.90703 8.84297 6.125 7.875 6.125C6.90703 6.125 6.125 6.90703 6.125 7.875C6.125 8.84297 6.90703 9.625 7.875 9.625ZM7 14C7 13.032 6.21797 12.25 5.25 12.25C4.28203 12.25 3.5 13.032 3.5 14C3.5 14.968 4.28203 15.75 5.25 15.75C6.21797 15.75 7 14.968 7 14ZM22.75 15.75C23.718 15.75 24.5 14.968 24.5 14C24.5 13.032 23.718 12.25 22.75 12.25C21.782 12.25 21 13.032 21 14C21 14.968 21.782 15.75 22.75 15.75ZM21.875 7.875C21.875 6.90703 21.093 6.125 20.125 6.125C19.157 6.125 18.375 6.90703 18.375 7.875C18.375 8.84297 19.157 9.625 20.125 9.625C21.093 9.625 21.875 8.84297 21.875 7.875Z" fill="#4B4B4B"/>
</svg>
