<svg width="35" height="35" viewBox="0 0 35 35" fill="none" xmlns="http://www.w3.org/2000/svg">
<path d="M17.3222 19.6875C22.5152 19.6875 26.7284 15.2783 26.7284 9.84375C26.7284 4.40918 22.5152 0 17.3222 0C12.1292 0 7.91595 4.40918 7.91595 9.84375C7.91595 15.2783 12.1292 19.6875 17.3222 19.6875ZM25.6833 21.875H22.0841C20.634 22.5723 19.0205 22.9688 17.3222 22.9688C15.6238 22.9688 14.0169 22.5723 12.5603 21.875H8.96109C4.34288 21.875 0.599976 25.792 0.599976 30.625V31.7188C0.599976 33.5303 2.00438 35 3.73539 35H30.909C32.64 35 34.0444 33.5303 34.0444 31.7188V30.625C34.0444 25.792 30.3015 21.875 25.6833 21.875Z" fill="#403D58"/>
</svg>
