<svg width="26" height="26" viewBox="0 0 26 26" fill="none" xmlns="http://www.w3.org/2000/svg">
<path d="M17.875 13C17.875 14.1273 17.8141 15.2141 17.7074 16.25H8.29258C8.18086 15.2141 8.125 14.1273 8.125 13C8.125 11.8727 8.18594 10.7859 8.29258 9.75H17.7074C17.8191 10.7859 17.875 11.8727 17.875 13ZM19.3375 9.75H25.5887C25.8578 10.791 26 11.8777 26 13C26 14.1223 25.8578 15.209 25.5887 16.25H19.3375C19.4441 15.2039 19.5 14.1172 19.5 13C19.5 11.8828 19.4441 10.7961 19.3375 9.75ZM25.0555 8.125H19.1293C18.6215 4.88008 17.616 2.16328 16.3211 0.426562C20.2973 1.47773 23.532 4.36211 25.0504 8.125H25.0555ZM17.484 8.125H8.51602C8.82578 6.27656 9.30312 4.64141 9.88711 3.31602C10.4203 2.11758 11.0145 1.24922 11.5883 0.700781C12.157 0.1625 12.6293 0 13 0C13.3707 0 13.843 0.1625 14.4117 0.700781C14.9855 1.24922 15.5797 2.11758 16.1129 3.31602C16.702 4.63633 17.1793 6.27148 17.484 8.125V8.125ZM6.8707 8.125H0.944531C2.46797 4.36211 5.69766 1.47773 9.67891 0.426562C8.38398 2.16328 7.37852 4.88008 6.8707 8.125V8.125ZM0.411328 9.75H6.6625C6.55586 10.7961 6.5 11.8828 6.5 13C6.5 14.1172 6.55586 15.2039 6.6625 16.25H0.411328C0.142188 15.209 0 14.1223 0 13C0 11.8777 0.142188 10.791 0.411328 9.75ZM9.88711 22.6789C9.29805 21.3586 8.82578 19.7234 8.51602 17.875H17.484C17.1742 19.7234 16.6969 21.3586 16.1129 22.6789C15.5797 23.8773 14.9855 24.7457 14.4117 25.2941C13.843 25.8375 13.3707 26 13 26C12.6293 26 12.157 25.8375 11.5883 25.2992C11.0145 24.7508 10.4203 23.8824 9.88711 22.684V22.6789ZM6.8707 17.875C7.37852 21.1199 8.38398 23.8367 9.67891 25.5734C5.69766 24.5223 2.46797 21.6379 0.944531 17.875H6.8707ZM25.0555 17.875C23.532 21.6379 20.3023 24.5223 16.3262 25.5734C17.6211 23.8367 18.6215 21.1199 19.1344 17.875H25.0555V17.875Z" fill="#4B4B4B"/>
</svg>
