<svg width="16" height="14" viewBox="0 0 16 14" fill="none" xmlns="http://www.w3.org/2000/svg">
   <path d="M14 12V10H2V12H14ZM14 14H2C0.896875 14 0 13.1031 0 12V10C0 8.89688 0.896875 8 2 8H14C15.1031 8 16 8.89688 16 10V12C16 13.1031 15.1031 14 14 14ZM9 4C9 5.10312 8.10312 6 7 6H2C0.896875 6 0 5.10312 0 4V2C0 0.896875 0.896875 0 2 0H6.5H7H11.5C12.8813 0 14 1.11875 14 2.5V3H15.1906C15.8594 3 16.1938 3.80937 15.7219 4.28125L13.5312 6.46875C13.2375 6.7625 12.7625 6.7625 12.4719 6.46875L10.2812 4.28125C9.80937 3.80937 10.1438 3 10.8125 3H12.0031V2.5C12.0031 2.225 11.7781 2 11.5031 2H9.00313V4H9Z" fill="#E71D36"/>
   </svg>
   