<svg width="16" height="15" viewBox="0 0 16 15" fill="none" xmlns="http://www.w3.org/2000/svg">
   <path d="M8.80278 0.527344C8.65556 0.205078 8.34444 0 8.00278 0C7.66111 0 7.35278 0.205078 7.20278 0.527344L5.41667 4.40332L1.42778 5.02441C1.09444 5.07715 0.816667 5.32324 0.713889 5.66016C0.611111 5.99707 0.694444 6.36914 0.933333 6.61816L3.82778 9.63867L3.14444 13.9072C3.08889 14.2588 3.22778 14.6162 3.50278 14.8242C3.77778 15.0322 4.14167 15.0586 4.44167 14.8916L8.00556 12.8848L11.5694 14.8916C11.8694 15.0586 12.2333 15.0352 12.5083 14.8242C12.7833 14.6133 12.9222 14.2588 12.8667 13.9072L12.1806 9.63867L15.075 6.61816C15.3139 6.36914 15.4 5.99707 15.2944 5.66016C15.1889 5.32324 14.9139 5.07715 14.5806 5.02441L10.5889 4.40332L8.80278 0.527344Z" fill="#E71D36"/>
   </svg>
   