<svg width="474" height="480" viewBox="0 0 474 480" fill="none" xmlns="http://www.w3.org/2000/svg">
<g filter="url(#filter0_d_83_309)">
<path d="M466.256 127.648C465.772 126.68 465.772 126.196 465.288 125.228C460.448 117.968 451.252 122.324 444.476 120.388C444.476 118.452 443.508 116.516 442.056 115.064C441.572 114.58 440.604 114.096 439.636 113.612C437.216 112.644 434.796 112.644 432.376 114.096C430.44 115.064 428.02 115.548 425.6 115.064C423.18 114.096 421.244 111.192 419.792 109.256C418.824 107.32 416.404 106.836 414.952 107.804C414.468 108.288 413.984 108.772 413.5 109.256C413.016 110.224 411.08 107.32 411.08 106.836C410.596 105.384 410.112 103.932 410.112 102.48C409.628 100.544 408.66 98.6079 407.692 96.6719C404.788 93.7679 401.4 91.8319 397.528 91.8319C391.236 91.3479 384.46 91.3479 378.168 91.3479C374.296 91.3479 371.392 92.3159 370.424 87.9599C369.94 86.5079 369.94 84.5719 368.972 83.1199C365.584 76.8279 357.84 76.8279 353 72.4719C349.612 69.5679 353 65.6959 353.968 62.3079C355.42 58.9199 354.936 55.0479 352.516 52.6279C351.548 51.6599 350.096 51.1759 349.128 51.6599C344.772 53.5959 341.384 57.4679 339.448 61.3399C337.996 64.2439 336.06 68.5999 332.188 65.2119C328.8 63.7599 328.8 58.4359 328.316 55.5319C328.316 50.2079 325.412 44.8839 320.088 42.4639C317.668 41.0119 314.764 41.0119 312.344 41.9799C310.892 39.5599 308.956 37.1399 306.536 35.6879C303.148 32.7839 296.856 29.8799 297.34 24.5559C297.34 22.1359 294.92 20.6839 292.5 21.1679C283.788 22.6199 278.464 10.5199 276.044 3.7439C275.56 1.8079 273.624 0.3559 271.688 0.8399C270.236 1.3239 269.268 2.2919 269.268 3.7439L252.328 8.5839C247.972 9.5519 242.648 10.5199 239.26 13.9079C237.324 17.2959 236.356 21.6519 236.84 25.5239V45.3679C226.676 49.2399 220.868 60.3719 210.22 64.2439C202.96 67.1479 195.216 63.2759 187.956 66.6639C183.116 68.5999 179.728 72.9559 179.244 78.2799C179.244 79.7319 180.212 81.1839 181.664 81.6679C183.116 81.6679 184.568 82.1519 186.02 82.1519C177.792 84.5719 168.112 81.1839 159.884 79.2479C154.076 78.7639 148.752 77.3119 143.428 75.8599C139.072 73.9239 132.78 67.6319 137.136 62.7919C138.588 60.8559 138.588 56.9839 135.684 56.4999C128.424 55.5319 121.648 53.1119 114.872 50.2079C112.452 49.2399 108.58 51.1759 109.548 54.0799C112.452 62.7919 114.388 71.5039 116.324 80.6999C117.292 85.0559 117.776 89.8959 118.744 94.2519C120.196 99.0919 120.68 104.416 120.196 109.256C119.712 111.676 119.228 111.676 116.808 111.192C115.356 110.708 113.904 110.224 112.452 109.256C110.032 108.288 107.612 108.288 105.192 108.772C103.256 108.772 101.804 109.74 100.836 111.192C95.996 108.772 89.704 109.256 84.38 109.256C79.54 109.256 75.184 109.256 72.764 103.932C71.312 100.06 70.828 96.1879 66.956 93.7679C63.084 91.3479 57.276 92.3159 52.92 92.7999L31.624 95.7039C20.976 97.1559 9.84397 97.6399 1.13197 104.9C-0.320031 106.352 -0.320031 108.772 1.13197 110.224L1.61597 110.708L8.39197 114.58L4.51997 119.42C3.06797 120.872 3.06797 123.292 4.51997 124.744L5.00397 125.228C7.90797 126.68 6.45597 135.876 7.90797 138.78C10.328 142.652 14.684 144.588 19.524 144.588C26.3 144.588 33.076 146.524 38.884 150.396C44.208 154.268 48.564 159.592 54.372 162.98C60.18 166.368 66.956 165.884 72.28 169.272C76.152 172.66 80.024 176.532 82.444 180.888C84.864 184.76 87.768 188.148 91.156 191.052C90.672 191.052 89.704 191.536 89.22 192.02C86.8 193.956 84.864 196.376 83.896 199.28C82.444 205.088 82.928 211.864 85.832 217.188C89.22 224.448 94.06 231.224 99.868 236.548C104.224 240.904 113.904 248.164 112.452 254.94C111 254.94 109.548 255.908 109.064 257.36C109.064 258.328 108.58 259.78 108.58 260.748C108.096 261.232 108.096 261.716 108.096 262.684C103.74 284.464 98.9 306.728 94.06 328.508C89.704 351.74 80.024 373.52 65.504 392.396C64.052 393.848 64.052 397.236 66.472 398.204C69.376 399.172 71.312 401.108 72.28 404.012C73.248 406.916 72.28 408.852 71.796 411.756C71.312 414.66 72.28 417.08 74.216 419.016C77.604 421.436 82.928 421.436 87.284 422.404C92.608 423.856 97.448 426.276 101.804 429.664C105.192 432.568 109.548 434.504 113.904 435.472C119.228 437.408 124.068 440.312 128.424 443.7C137.136 448.54 146.332 451.444 156.496 451.928C157.948 451.928 158.916 451.444 159.884 449.992L163.272 443.216C179.244 452.412 195.7 461.124 211.672 469.836C218.932 473.708 226.676 476.128 234.904 476.612C238.776 476.612 242.648 476.612 246.52 475.644C249.424 474.676 252.328 473.708 255.716 473.708C257.652 474.192 259.588 473.224 260.072 470.804C260.072 470.32 260.072 469.836 260.072 468.868C257.168 458.704 257.652 447.572 261.04 437.408C264.428 427.728 273.624 427.728 282.336 425.308C285.24 424.34 288.628 423.372 291.048 421.436C292.5 420.468 293.952 418.532 295.404 417.564C296.856 417.08 297.824 418.048 299.76 419.016C302.18 420.468 305.568 420.952 308.472 419.984C311.86 419.5 315.732 418.532 319.12 418.048C319.12 420.952 319.604 423.856 321.54 425.308C324.444 427.244 330.736 426.276 334.608 425.792C337.512 428.696 341.384 430.632 345.74 431.116C345.74 432.568 346.708 434.02 347.676 434.988C352.516 439.828 359.292 437.408 361.228 445.636C361.712 447.572 363.648 448.54 365.584 448.056C366.068 448.056 366.552 447.572 367.036 447.088C368.488 445.636 373.812 447.088 376.232 446.12C377.2 445.636 377.684 445.152 378.652 444.668C385.428 446.12 392.204 445.636 398.496 442.248C400.432 441.28 402.368 439.828 403.336 437.892C404.304 435.472 402.368 426.276 407.692 430.148C409.628 431.116 411.564 430.632 412.532 428.696C413.016 428.212 413.016 427.728 413.016 426.76C412.532 422.404 422.696 418.532 425.6 417.08C429.472 415.144 432.86 413.208 436.248 410.304C438.668 407.4 440.12 404.012 440.12 400.624C440.604 398.204 440.604 396.268 441.088 393.848C441.572 391.428 441.088 388.524 442.056 387.556C444.476 384.652 441.572 379.328 437.7 381.748C437.7 381.748 437.7 381.748 437.7 382.232L434.796 384.168C431.892 382.232 428.504 383.2 424.148 383.684C412.048 385.62 416.888 371.1 417.856 363.84C419.792 353.676 416.404 343.512 408.176 337.22C406.724 336.252 405.756 335.768 406.724 335.284C407.692 334.316 410.596 335.768 411.564 336.736C412.532 337.22 413.984 337.22 415.436 336.736C423.18 330.928 426.568 320.28 423.18 311.084C422.696 308.664 421.244 306.728 419.792 304.792C418.824 303.824 417.856 302.856 416.888 301.888C415.436 299.468 415.92 298.984 416.404 297.532C417.372 295.596 419.308 293.66 420.276 291.24C420.76 288.82 420.76 285.916 419.792 283.496C417.372 275.268 402.852 263.168 393.656 267.524C391.72 268.492 390.268 271.88 388.332 272.848C386.396 273.332 387.848 272.848 388.332 271.396C388.332 269.944 388.816 268.008 389.3 266.556C390.752 260.748 393.172 253.972 399.464 251.552C400.916 251.068 401.884 249.616 401.884 248.164L402.852 239.452C411.08 236.548 418.34 230.256 422.212 222.512C423.18 220.576 423.664 218.156 424.632 215.736C426.084 212.348 428.504 213.316 431.408 213.316C435.764 212.832 440.12 210.896 443.024 207.508C446.896 202.668 445.444 198.796 445.444 192.988C445.444 185.728 446.896 178.952 448.832 172.176C452.22 159.592 457.544 147.492 464.32 136.36C466.256 134.424 467.224 131.036 466.256 127.648Z" fill="#C8B100"/>
</g>
<defs>
<filter id="filter0_d_83_309" x="0.0429688" y="0.746094" width="474.593" height="483.866" filterUnits="userSpaceOnUse" color-interpolation-filters="sRGB">
<feFlood flood-opacity="0" result="BackgroundImageFix"/>
<feColorMatrix in="SourceAlpha" type="matrix" values="0 0 0 0 0 0 0 0 0 0 0 0 0 0 0 0 0 0 127 0" result="hardAlpha"/>
<feOffset dx="4" dy="4"/>
<feGaussianBlur stdDeviation="2"/>
<feComposite in2="hardAlpha" operator="out"/>
<feColorMatrix type="matrix" values="0 0 0 0 0 0 0 0 0 0 0 0 0 0 0 0 0 0 0.25 0"/>
<feBlend mode="normal" in2="BackgroundImageFix" result="effect1_dropShadow_83_309"/>
<feBlend mode="normal" in="SourceGraphic" in2="effect1_dropShadow_83_309" result="shape"/>
</filter>
</defs>
</svg>
