<svg width="940" height="657" viewBox="0 0 940 657" fill="none" xmlns="http://www.w3.org/2000/svg">
   <mask id="path-1-inside-1_297_5258" fill="white">
   <path d="M940 637C940 648.046 931.046 657 920 657L0 657L0 0L920 0C931.046 0 940 8.95428 940 20L940 637Z"/>
   </mask>
   <path d="M942 637C942 649.15 932.15 659 920 659L0 659V655L920 655C929.941 655 938 646.941 938 637H942ZM0 -2L920 -2C932.15 -2 942 7.84973 942 20H938C938 10.0589 929.941 2 920 2L0 2V-2ZM920 -2C932.15 -2 942 7.84973 942 20L942 637C942 649.15 932.15 659 920 659V655C929.941 655 938 646.941 938 637L938 20C938 10.0589 929.941 2 920 2V-2ZM0 657L0 0L0 657Z" fill="#DCDEE0" mask="url(#path-1-inside-1_297_5258)"/>
   <g filter="url(#filter0_d_297_5258)">
   <path d="M230.704 110.5H783.829C788.839 110.5 793.033 115.104 793.033 120.848V536.688C793.033 542.433 788.839 547.036 783.829 547.036H230.704C225.694 547.036 221.5 542.433 221.5 536.688V120.848C221.5 115.104 225.694 110.5 230.704 110.5Z" fill="white" stroke="#DEDEDE"/>
   <path d="M344.878 206.704H391.873C395.75 206.704 398.923 210.209 398.923 214.493C398.923 218.778 395.75 222.283 391.873 222.283H344.878C341.001 222.283 337.829 218.778 337.829 214.493C337.829 210.209 341.001 206.704 344.878 206.704Z" fill="#403D58"/>
   <path d="M344.878 206.704H391.873C395.75 206.704 398.923 210.209 398.923 214.493C398.923 218.778 395.75 222.283 391.873 222.283H344.878C341.001 222.283 337.829 218.778 337.829 214.493C337.829 210.209 341.001 206.704 344.878 206.704Z" fill="#403D58"/>
   <path d="M345.049 304.569H392.045C395.922 304.569 399.094 308.074 399.094 312.359C399.094 316.643 395.922 320.148 392.045 320.148H345.049C341.172 320.148 338 316.643 338 312.359C338 308.074 341.172 304.569 345.049 304.569Z" fill="#403D58"/>
   <path d="M424.049 282.205H471.045C474.922 282.205 478.094 285.71 478.094 289.994C478.094 294.279 474.922 297.784 471.045 297.784H424.049C420.172 297.784 417 294.279 417 289.994C417 285.71 420.172 282.205 424.049 282.205Z" fill="#403D58"/>
   <path d="M503.049 255.368H550.045C553.922 255.368 557.094 258.873 557.094 263.157C557.094 267.442 553.922 270.947 550.045 270.947H503.049C499.172 270.947 496 267.442 496 263.157C496 258.873 499.172 255.368 503.049 255.368Z" fill="#403D58"/>
   <path d="M345.049 277.732H392.045C395.922 277.732 399.094 281.237 399.094 285.522C399.094 289.806 395.922 293.311 392.045 293.311H345.049C341.172 293.311 338 289.806 338 285.522C338 281.237 341.172 277.732 345.049 277.732Z" fill="#403D58"/>
   <path d="M424.049 255.368H471.045C474.922 255.368 478.094 258.873 478.094 263.157C478.094 267.442 474.922 270.947 471.045 270.947H424.049C420.172 270.947 417 267.442 417 263.157C417 258.873 420.172 255.368 424.049 255.368Z" fill="#403D58"/>
   <path d="M345.049 255.368H392.045C395.922 255.368 399.094 258.873 399.094 263.157C399.094 267.442 395.922 270.947 392.045 270.947H345.049C341.172 270.947 338 267.442 338 263.157C338 258.873 341.172 255.368 345.049 255.368Z" fill="#403D58"/>
   <path d="M424.049 206.166H471.045C474.922 206.166 478.094 209.672 478.094 213.956C478.094 218.24 474.922 221.745 471.045 221.745H424.049C420.172 221.745 417 218.24 417 213.956C417 209.672 420.172 206.166 424.049 206.166Z" fill="#403D58"/>
   <path d="M345.049 230.767H392.045C395.922 230.767 399.094 234.272 399.094 238.557C399.094 242.841 395.922 246.346 392.045 246.346H345.049C341.172 246.346 338 242.841 338 238.557C338 234.272 341.172 230.767 345.049 230.767Z" fill="#403D58"/>
   <path d="M503.049 230.767H550.045C553.922 230.767 557.094 234.272 557.094 238.557C557.094 242.841 553.922 246.346 550.045 246.346H503.049C499.172 246.346 496 242.841 496 238.557C496 234.272 499.172 230.767 503.049 230.767Z" fill="#403D58"/>
   <path d="M424.049 228.531H471.045C474.922 228.531 478.094 232.036 478.094 236.32C478.094 240.604 474.922 244.11 471.045 244.11H424.049C420.172 244.11 417 240.604 417 236.32C417 232.036 420.172 228.531 424.049 228.531Z" fill="#403D58"/>
   <path d="M582.049 230.767H629.045C632.922 230.767 636.094 234.272 636.094 238.557C636.094 242.841 632.922 246.346 629.045 246.346H582.049C578.172 246.346 575 242.841 575 238.557C575 234.272 578.172 230.767 582.049 230.767Z" fill="#403D58"/>
   <path d="M661.049 206.166H708.045C711.922 206.166 715.094 209.672 715.094 213.956C715.094 218.24 711.922 221.745 708.045 221.745H661.049C657.172 221.745 654 218.24 654 213.956C654 209.672 657.172 206.166 661.049 206.166Z" fill="#403D58"/>
   <path d="M582.049 206.166H629.045C632.922 206.166 636.094 209.672 636.094 213.956C636.094 218.24 632.922 221.745 629.045 221.745H582.049C578.172 221.745 575 218.24 575 213.956C575 209.672 578.172 206.166 582.049 206.166Z" fill="#403D58"/>
   <path d="M503.049 206.166H550.045C553.922 206.166 557.094 209.672 557.094 213.956C557.094 218.24 553.922 221.745 550.045 221.745H503.049C499.172 221.745 496 218.24 496 213.956C496 209.672 499.172 206.166 503.049 206.166Z" fill="#403D58"/>
   <path fill-rule="evenodd" clip-rule="evenodd" d="M626.149 506.669H688.315H626.149Z" fill="white"/>
   <path d="M626.149 506.669H688.315" stroke="#DCDEE0" stroke-width="2" stroke-linecap="round" stroke-linejoin="round"/>
   <path fill-rule="evenodd" clip-rule="evenodd" d="M626.149 516.256H673.309H626.149Z" fill="white"/>
   <path d="M626.149 516.256H673.309" stroke="#DCDEE0" stroke-width="2" stroke-linecap="round" stroke-linejoin="round"/>
   <path fill-rule="evenodd" clip-rule="evenodd" d="M626.149 536.629H694.746H626.149Z" fill="white"/>
   <path d="M626.149 536.629H694.746" stroke="#DCDEE0" stroke-width="2" stroke-linecap="round" stroke-linejoin="round"/>
   <path fill-rule="evenodd" clip-rule="evenodd" d="M470.735 506.669H532.9H470.735Z" fill="white"/>
   <path d="M470.735 506.669H532.9" stroke="#DCDEE0" stroke-width="2" stroke-linecap="round" stroke-linejoin="round"/>
   <path fill-rule="evenodd" clip-rule="evenodd" d="M470.735 516.256H517.895H470.735Z" fill="white"/>
   <path d="M470.735 516.256H517.895" stroke="#DCDEE0" stroke-width="2" stroke-linecap="round" stroke-linejoin="round"/>
   <path fill-rule="evenodd" clip-rule="evenodd" d="M470.735 536.629H539.331H470.735Z" fill="white"/>
   <path d="M470.735 536.629H539.331" stroke="#DCDEE0" stroke-width="2" stroke-linecap="round" stroke-linejoin="round"/>
   <path fill-rule="evenodd" clip-rule="evenodd" d="M315.32 506.669H377.486H315.32Z" fill="white"/>
   <path d="M315.32 506.669H377.486" stroke="#DCDEE0" stroke-width="2" stroke-linecap="round" stroke-linejoin="round"/>
   <path fill-rule="evenodd" clip-rule="evenodd" d="M315.32 516.256H362.481H315.32Z" fill="white"/>
   <path d="M315.32 516.256H362.481" stroke="#DCDEE0" stroke-width="2" stroke-linecap="round" stroke-linejoin="round"/>
   <path fill-rule="evenodd" clip-rule="evenodd" d="M315.32 536.629H383.917H315.32Z" fill="white"/>
   <path d="M315.32 536.629H383.917" stroke="#DCDEE0" stroke-width="2" stroke-linecap="round" stroke-linejoin="round"/>
   <path d="M626.149 486.296H697.961" stroke="#66D7D1" stroke-width="4" stroke-linecap="round"/>
   <path d="M470.735 486.296H542.547" stroke="#66D7D1" stroke-width="4" stroke-linecap="round"/>
   <path d="M315.32 486.296H387.132" stroke="#66D7D1" stroke-width="4" stroke-linecap="round"/>
   <mask id="path-41-inside-2_297_5258" fill="white">
   <path d="M291.74 474.725C291.74 469.202 296.217 464.725 301.74 464.725H400.713C406.235 464.725 410.713 469.202 410.713 474.725V547.415H291.74V474.725Z"/>
   </mask>
   <path d="M290.74 474.725C290.74 468.65 295.665 463.725 301.74 463.725H400.713C406.788 463.725 411.713 468.65 411.713 474.725H409.713C409.713 469.755 405.683 465.725 400.713 465.725H301.74C296.77 465.725 292.74 469.755 292.74 474.725H290.74ZM410.713 547.415H291.74H410.713ZM290.74 547.415V474.725C290.74 468.65 295.665 463.725 301.74 463.725V465.725C296.77 465.725 292.74 469.755 292.74 474.725V547.415H290.74ZM400.713 463.725C406.788 463.725 411.713 468.65 411.713 474.725V547.415H409.713V474.725C409.713 469.755 405.683 465.725 400.713 465.725V463.725Z" fill="#DCDEE0" mask="url(#path-41-inside-2_297_5258)"/>
   <mask id="path-43-inside-3_297_5258" fill="white">
   <path d="M602.569 474.725C602.569 469.202 607.046 464.725 612.569 464.725H711.541C717.064 464.725 721.541 469.202 721.541 474.725V547.415H602.569V474.725Z"/>
   </mask>
   <path d="M601.569 474.725C601.569 468.65 606.494 463.725 612.569 463.725H711.541C717.616 463.725 722.541 468.65 722.541 474.725H720.541C720.541 469.755 716.512 465.725 711.541 465.725H612.569C607.598 465.725 603.569 469.755 603.569 474.725H601.569ZM721.541 547.415H602.569H721.541ZM601.569 547.415V474.725C601.569 468.65 606.494 463.725 612.569 463.725V465.725C607.598 465.725 603.569 469.755 603.569 474.725V547.415H601.569ZM711.541 463.725C717.616 463.725 722.541 468.65 722.541 474.725V547.415H720.541V474.725C720.541 469.755 716.512 465.725 711.541 465.725V463.725Z" fill="#DCDEE0" mask="url(#path-43-inside-3_297_5258)"/>
   <mask id="path-45-inside-4_297_5258" fill="white">
   <path d="M447.155 474.725C447.155 469.202 451.632 464.725 457.155 464.725H556.127C561.65 464.725 566.127 469.202 566.127 474.725V547.415H447.155V474.725Z"/>
   </mask>
   <path d="M446.155 474.725C446.155 468.65 451.079 463.725 457.155 463.725H556.127C562.202 463.725 567.127 468.65 567.127 474.725H565.127C565.127 469.755 561.097 465.725 556.127 465.725H457.155C452.184 465.725 448.155 469.755 448.155 474.725H446.155ZM566.127 547.415H447.155H566.127ZM446.155 547.415V474.725C446.155 468.65 451.079 463.725 457.155 463.725V465.725C452.184 465.725 448.155 469.755 448.155 474.725V547.415H446.155ZM556.127 463.725C562.202 463.725 567.127 468.65 567.127 474.725V547.415H565.127V474.725C565.127 469.755 561.097 465.725 556.127 465.725V463.725Z" fill="#DCDEE0" mask="url(#path-45-inside-4_297_5258)"/>
   <path d="M699.445 156.737H752.212C756.565 156.737 760.127 160.782 760.127 165.725C760.127 170.669 756.565 174.713 752.212 174.713H699.445C695.092 174.713 691.53 170.669 691.53 165.725C691.53 160.782 695.092 156.737 699.445 156.737Z" fill="#C8B100"/>
   <path fill-rule="evenodd" clip-rule="evenodd" d="M291.74 166.325H320.679H291.74Z" fill="white"/>
   <path d="M291.74 166.325H320.679" stroke="#C8B100" stroke-width="2" stroke-linecap="round" stroke-linejoin="round"/>
   <path fill-rule="evenodd" clip-rule="evenodd" d="M339.972 166.325H383.917H339.972Z" fill="white"/>
   <path d="M339.972 166.325H383.917" stroke="#C8B100" stroke-width="2" stroke-linecap="round" stroke-linejoin="round"/>
   <path fill-rule="evenodd" clip-rule="evenodd" d="M402.138 166.325H431.077H402.138Z" fill="white"/>
   <path d="M402.138 166.325H431.077" stroke="#C8B100" stroke-width="2" stroke-linecap="round" stroke-linejoin="round"/>
   <path fill-rule="evenodd" clip-rule="evenodd" d="M448.227 166.325H485.74H448.227Z" fill="white"/>
   <path d="M448.227 166.325H485.74" stroke="#C8B100" stroke-width="2" stroke-linecap="round" stroke-linejoin="round"/>
   <path fill-rule="evenodd" clip-rule="evenodd" d="M771.917 166.325H787.994H771.917Z" fill="white"/>
   <path d="M771.917 166.325H787.994" stroke="#DCDEE0" stroke-width="2" stroke-linecap="round" stroke-linejoin="round"/>
   <path d="M248.662 177.845C254.468 177.845 259.174 172.583 259.174 166.093C259.174 159.602 254.468 154.341 248.662 154.341C242.856 154.341 238.149 159.602 238.149 166.093C238.149 172.583 242.856 177.845 248.662 177.845Z" fill="#C8B100"/>
   <path fill-rule="evenodd" clip-rule="evenodd" d="M221 184.301H793.354H221Z" fill="white"/>
   <path d="M221 184.301H793.354" stroke="#E6E6E6" stroke-linecap="round" stroke-linejoin="round"/>
   <path fill-rule="evenodd" clip-rule="evenodd" d="M221 422.781H793.354H221Z" fill="white"/>
   <path d="M221 422.781H793.354" stroke="#E6E6E6" stroke-linecap="round" stroke-linejoin="round"/>
   <path fill-rule="evenodd" clip-rule="evenodd" d="M275.989 122.656C278.738 122.656 280.841 125.006 280.841 128.08C280.841 131.153 278.738 133.504 275.989 133.504C273.24 133.504 271.137 131.153 271.137 128.08C271.137 125.006 273.24 122.656 275.989 122.656ZM259.816 122.656C262.565 122.656 264.668 125.006 264.668 128.08C264.668 131.153 262.565 133.504 259.816 133.504C257.066 133.504 254.964 131.153 254.964 128.08C254.964 125.006 257.066 122.656 259.816 122.656ZM243.642 122.656C246.392 122.656 248.494 125.006 248.494 128.08C248.494 131.153 246.392 133.504 243.642 133.504C240.893 133.504 238.791 131.153 238.791 128.08C238.791 125.006 240.893 122.656 243.642 122.656Z" fill="#E71D36"/>
   <path fill-rule="evenodd" clip-rule="evenodd" d="M221 145.952H793.354H221Z" fill="white"/>
   <path d="M221 145.952H793.354" stroke="#E6E6E6" stroke-linecap="round" stroke-linejoin="round"/>
   <path d="M775.742 124.464L780.594 129.888L775.742 135.312" stroke="#403D58"/>
   <path d="M755.202 124.464L750.35 129.888L755.202 135.312" stroke="#403D58"/>
   </g>
   <defs>
   <filter id="filter0_d_297_5258" x="220.5" y="110" width="595.354" height="459.537" filterUnits="userSpaceOnUse" color-interpolation-filters="sRGB">
   <feFlood flood-opacity="0" result="BackgroundImageFix"/>
   <feColorMatrix in="SourceAlpha" type="matrix" values="0 0 0 0 0 0 0 0 0 0 0 0 0 0 0 0 0 0 127 0" result="hardAlpha"/>
   <feOffset dx="12" dy="12"/>
   <feGaussianBlur stdDeviation="5"/>
   <feComposite in2="hardAlpha" operator="out"/>
   <feColorMatrix type="matrix" values="0 0 0 0 0 0 0 0 0 0 0 0 0 0 0 0 0 0 0.5 0"/>
   <feBlend mode="normal" in2="BackgroundImageFix" result="effect1_dropShadow_297_5258"/>
   <feBlend mode="normal" in="SourceGraphic" in2="effect1_dropShadow_297_5258" result="shape"/>
   </filter>
   </defs>
   </svg>
   