<svg width="759" height="608" viewBox="0 0 759 608" fill="none" xmlns="http://www.w3.org/2000/svg">
<g filter="url(#filter0_d_70_1468)">
<path d="M57.3399 41.4888H573.4C578.379 41.4888 582.453 45.5622 582.453 50.5409V397.538C582.453 402.517 578.379 406.591 573.4 406.591H57.3399C52.3604 406.591 48.2863 402.517 48.2863 397.538V50.5409C48.2863 45.5622 52.3604 41.4888 57.3399 41.4888Z" fill="white"/>
<path fill-rule="evenodd" clip-rule="evenodd" d="M195.409 127.484H368.937V246.67H195.409V127.484ZM381.009 127.484H554.538V246.67H381.009V127.484ZM195.409 258.739H368.937V377.925H195.409V258.739ZM381.009 258.739H554.538V377.925H381.009V258.739Z" fill="white" stroke="#E6E6E6" stroke-linecap="round" stroke-linejoin="round"/>
<path fill-rule="evenodd" clip-rule="evenodd" d="M206.726 193.866H209.744C210.649 193.866 211.252 194.469 211.252 195.375V245.161H205.217V195.375C205.217 194.469 205.82 193.866 206.726 193.866ZM218.797 163.692H221.815C222.72 163.692 223.324 164.296 223.324 165.201V245.161H217.288V165.201C217.288 164.296 217.892 163.692 218.797 163.692ZM230.869 193.866H233.887C234.792 193.866 235.396 194.469 235.396 195.375V245.161H229.36V195.375C229.36 194.469 229.963 193.866 230.869 193.866ZM242.94 224.04H245.958C246.864 224.04 247.467 224.643 247.467 225.548V245.161H241.431V225.548C241.431 224.643 242.035 224.04 242.94 224.04ZM255.012 208.953H258.03C258.935 208.953 259.539 209.556 259.539 210.461V245.161H253.503V210.461C253.503 209.556 254.107 208.953 255.012 208.953ZM267.083 178.779H270.101C271.007 178.779 271.61 179.383 271.61 180.288V245.161H265.575V180.288C265.575 179.383 266.178 178.779 267.083 178.779ZM279.155 163.692H282.173C283.078 163.692 283.682 164.296 283.682 165.201V245.161H277.646V165.201C277.646 164.296 278.25 163.692 279.155 163.692ZM291.227 208.953H294.245C295.15 208.953 295.753 209.556 295.753 210.461V245.161H289.718V210.461C289.718 209.556 290.321 208.953 291.227 208.953ZM303.298 224.04H306.316C307.221 224.04 307.825 224.643 307.825 225.548V245.161H301.789V225.548C301.789 224.643 302.393 224.04 303.298 224.04ZM315.37 208.953H318.388C319.293 208.953 319.897 209.556 319.897 210.461V245.161H313.861V210.461C313.861 209.556 314.464 208.953 315.37 208.953ZM327.441 224.04H330.459C331.365 224.04 331.968 224.643 331.968 225.548V245.161H325.932V225.548C325.932 224.643 326.536 224.04 327.441 224.04ZM339.513 193.866H342.531C343.436 193.866 344.04 194.469 344.04 195.375V245.161H338.004V195.375C338.004 194.469 338.608 193.866 339.513 193.866ZM351.584 163.692H354.602C355.508 163.692 356.111 164.296 356.111 165.201V245.161H350.076V165.201C350.076 164.296 350.679 163.692 351.584 163.692Z" fill="#DCDEE0"/>
<path fill-rule="evenodd" clip-rule="evenodd" d="M540.203 325.122H543.221C544.126 325.122 544.73 325.725 544.73 326.63V376.417H538.694V326.63C538.694 325.725 539.297 325.122 540.203 325.122ZM528.131 294.948H531.149C532.054 294.948 532.658 295.551 532.658 296.457V376.417H526.622V296.457C526.622 295.551 527.226 294.948 528.131 294.948ZM516.06 325.122H519.078C519.983 325.122 520.586 325.725 520.586 326.63V376.417H514.551V326.63C514.551 325.725 515.154 325.122 516.06 325.122ZM503.988 355.295H507.006C507.911 355.295 508.515 355.899 508.515 356.804V376.417H502.479V356.804C502.479 355.899 503.083 355.295 503.988 355.295ZM491.916 340.208H494.934C495.84 340.208 496.443 340.812 496.443 341.717V376.417H490.408V341.717C490.408 340.812 491.011 340.208 491.916 340.208ZM479.845 310.035H482.863C483.768 310.035 484.372 310.638 484.372 311.543V376.417H478.336V311.543C478.336 310.638 478.94 310.035 479.845 310.035ZM467.773 294.948H470.791C471.697 294.948 472.3 295.551 472.3 296.457V376.417H466.264V296.457C466.264 295.551 466.868 294.948 467.773 294.948ZM455.702 340.208H458.72C459.625 340.208 460.229 340.812 460.229 341.717V376.417H454.193V341.717C454.193 340.812 454.796 340.208 455.702 340.208ZM443.63 355.295H446.648C447.553 355.295 448.157 355.899 448.157 356.804V376.417H442.121V356.804C442.121 355.899 442.725 355.295 443.63 355.295ZM431.559 340.208H434.577C435.482 340.208 436.085 340.812 436.085 341.717V376.417H430.05V341.717C430.05 340.812 430.653 340.208 431.559 340.208ZM419.487 355.295H422.505C423.41 355.295 424.014 355.899 424.014 356.804V376.417H417.978V356.804C417.978 355.899 418.582 355.295 419.487 355.295ZM407.415 325.122H410.433C411.339 325.122 411.942 325.725 411.942 326.63V376.417H405.907V326.63C405.907 325.725 406.51 325.122 407.415 325.122ZM395.344 294.948H398.362C399.267 294.948 399.871 295.551 399.871 296.457V376.417H393.835V296.457C393.835 295.551 394.439 294.948 395.344 294.948Z" fill="#DCDEE0"/>
<path d="M393.835 214.988L401.38 198.392L407.415 204.427L417.978 211.97L427.786 206.69L436.085 177.27L443.63 172.744L457.211 189.34L466.264 181.796L481.354 196.883L487.39 190.849L497.952 187.831L513.042 180.288L525.113 201.409L535.676 190.849L541.712 175.762" stroke="#DCDEE0" stroke-linecap="round" stroke-linejoin="round"/>
<path d="M355.96 346.243L348.416 329.648L342.38 335.682L331.817 343.226L322.009 337.945L313.71 308.526L306.165 304L292.585 320.595L283.531 313.052L268.442 328.139L262.406 322.104L251.843 319.087L236.754 311.543L224.682 332.665L214.119 322.104L208.084 307.017" stroke="#DCDEE0" stroke-linecap="round" stroke-linejoin="round"/>
<path fill-rule="evenodd" clip-rule="evenodd" d="M208.989 141.062H242.186H208.989Z" fill="white"/>
<path d="M208.989 141.062H242.186" stroke="#E6E6E6" stroke-linecap="round" stroke-linejoin="round"/>
<path fill-rule="evenodd" clip-rule="evenodd" d="M394.589 141.062H427.786H394.589Z" fill="white"/>
<path d="M394.589 141.062H427.786" stroke="#E6E6E6" stroke-linecap="round" stroke-linejoin="round"/>
<path fill-rule="evenodd" clip-rule="evenodd" d="M208.989 272.318H242.186H208.989Z" fill="white"/>
<path d="M208.989 272.318H242.186" stroke="#E6E6E6" stroke-linecap="round" stroke-linejoin="round"/>
<path fill-rule="evenodd" clip-rule="evenodd" d="M394.589 272.318H427.786H394.589Z" fill="white"/>
<path d="M394.589 272.318H427.786" stroke="#E6E6E6" stroke-linecap="round" stroke-linejoin="round"/>
<path d="M196.163 103.345H256.521" stroke="#DCDEE0" stroke-width="4" stroke-linecap="round"/>
<path fill-rule="evenodd" clip-rule="evenodd" d="M67.9025 135.027H128.109H67.9025Z" fill="white"/>
<path d="M67.9025 135.027H128.109" stroke="#DBD56E" stroke-width="2" stroke-linecap="round" stroke-linejoin="round"/>
<path d="M75.4473 94.2927H135.805C140.785 94.2927 144.859 98.3662 144.859 103.345C144.859 108.323 140.785 112.397 135.805 112.397H75.4473C70.4678 112.397 66.3936 108.323 66.3936 103.345C66.3936 98.3662 70.4678 94.2927 75.4473 94.2927Z" fill="#DBD56E"/>
<path fill-rule="evenodd" clip-rule="evenodd" d="M67.9025 156.149H102.608H67.9025Z" fill="white"/>
<path d="M67.9025 156.149H102.608" stroke="#DBD56E" stroke-width="2" stroke-linecap="round" stroke-linejoin="round"/>
<path fill-rule="evenodd" clip-rule="evenodd" d="M67.9025 175.762H129.769H67.9025Z" fill="white"/>
<path d="M67.9025 175.762H129.769" stroke="#DBD56E" stroke-width="2" stroke-linecap="round" stroke-linejoin="round"/>
<path fill-rule="evenodd" clip-rule="evenodd" d="M67.9025 195.375H129.769H67.9025Z" fill="white"/>
<path d="M67.9025 195.375H129.769" stroke="#DBD56E" stroke-width="2" stroke-linecap="round" stroke-linejoin="round"/>
<path fill-rule="evenodd" clip-rule="evenodd" d="M67.9025 214.988H129.769H67.9025Z" fill="white"/>
<path d="M67.9025 214.988H129.769" stroke="#DBD56E" stroke-width="2" stroke-linecap="round" stroke-linejoin="round"/>
<path fill-rule="evenodd" clip-rule="evenodd" d="M98.0815 364.347H135.805H98.0815Z" fill="white"/>
<path d="M98.0815 364.347H135.805" stroke="#DBD56E" stroke-width="2" stroke-linecap="round" stroke-linejoin="round"/>
<g opacity="0.5">
<path fill-rule="evenodd" clip-rule="evenodd" d="M98.0815 374.908H114.68H98.0815Z" fill="white"/>
<path d="M98.0815 374.908H114.68" stroke="#DBD56E" stroke-width="2" stroke-linecap="round" stroke-linejoin="round"/>
</g>
<path fill-rule="evenodd" clip-rule="evenodd" d="M99.5904 52.0496C102.156 52.0496 104.117 54.0109 104.117 56.5756C104.117 59.1404 102.156 61.1017 99.5904 61.1017C97.0252 61.1017 95.0636 59.1404 95.0636 56.5756C95.0636 54.0109 97.0252 52.0496 99.5904 52.0496ZM84.5009 52.0496C87.0662 52.0496 89.0278 54.0109 89.0278 56.5756C89.0278 59.1404 87.0662 61.1017 84.5009 61.1017C81.9357 61.1017 79.9741 59.1404 79.9741 56.5756C79.9741 54.0109 81.9357 52.0496 84.5009 52.0496ZM69.4115 52.0496C71.9767 52.0496 73.9383 54.0109 73.9383 56.5756C73.9383 59.1404 71.9767 61.1017 69.4115 61.1017C66.8463 61.1017 64.8846 59.1404 64.8846 56.5756C64.8846 54.0109 66.8463 52.0496 69.4115 52.0496Z" fill="#DBD56E"/>
<path d="M77.7107 377.925C83.1276 377.925 87.5188 373.535 87.5188 368.119C87.5188 362.703 83.1276 358.313 77.7107 358.313C72.2938 358.313 67.9025 362.703 67.9025 368.119C67.9025 373.535 72.2938 377.925 77.7107 377.925Z" fill="#DBD56E"/>
<path fill-rule="evenodd" clip-rule="evenodd" d="M48 72H582H48Z" fill="white"/>
<path d="M48 72H582" stroke="#E6E6E6" stroke-linecap="round" stroke-linejoin="round"/>
<path d="M565.855 53.5583L570.382 58.0843L565.855 62.6104" stroke="#403D58"/>
<path d="M546.691 53.5583L542.164 58.0843L546.691 62.6104" stroke="#403D58"/>
</g>
<g filter="url(#filter1_d_70_1468)">
<path d="M185.054 185H701.113C706.093 185 710.167 189.073 710.167 194.052V541.05C710.167 546.028 706.093 550.102 701.113 550.102H185.054C180.074 550.102 176 546.028 176 541.05V194.052C176 189.073 180.074 185 185.054 185Z" fill="white"/>
<path d="M291.577 373H335.423C339.041 373 342 375.925 342 379.5C342 383.075 339.041 386 335.423 386H291.577C287.96 386 285 383.075 285 379.5C285 375.925 287.96 373 291.577 373Z" fill="#66D7D1"/>
<path d="M285 304H388" stroke="#DCDEE0" stroke-width="4" stroke-linecap="round"/>
<path fill-rule="evenodd" clip-rule="evenodd" d="M285 338H375H285Z" fill="white"/>
<path d="M285 338H375" stroke="#DCDEE0" stroke-width="2" stroke-linecap="round" stroke-linejoin="round"/>
<path fill-rule="evenodd" clip-rule="evenodd" d="M285 347H359H285Z" fill="white"/>
<path d="M285 347H359" stroke="#DCDEE0" stroke-width="2" stroke-linecap="round" stroke-linejoin="round"/>
<path fill-rule="evenodd" clip-rule="evenodd" d="M285 356H359H285Z" fill="white"/>
<path d="M285 356H359" stroke="#DCDEE0" stroke-width="2" stroke-linecap="round" stroke-linejoin="round"/>
<path d="M285 319H352" stroke="#DCDEE0" stroke-width="4" stroke-linecap="round"/>
<path d="M176 384.627C180.106 385.117 184.803 391.802 188.224 394.085C195.887 399.2 203.94 404.115 212.671 407.112C229.388 412.85 245.625 417.277 263.077 419.676C287.042 422.969 310.049 424.594 334.314 423.802C351.044 423.255 369.019 420.601 385.315 416.709C398.348 413.596 411.65 410.821 424.092 405.675C438.354 399.776 452.967 393.801 466.624 386.575C479.996 379.499 492.144 370.064 505.08 362.189C533.516 344.88 559.819 323.793 590.052 309.663C608.176 301.193 626.489 295.105 646.455 293.391C658.743 292.336 671.118 292 683.447 292C692.298 292 701.149 292 710 292" stroke="#DCDEE0" stroke-linecap="round"/>
<path d="M622.385 224H671.615C675.677 224 679 227.375 679 231.5C679 235.625 675.677 239 671.615 239H622.385C618.323 239 615 235.625 615 231.5C615 227.375 618.323 224 622.385 224Z" fill="#66D7D1"/>
<path fill-rule="evenodd" clip-rule="evenodd" d="M242 232H269H242Z" fill="white"/>
<path d="M242 232H269" stroke="#66D7D1" stroke-width="2" stroke-linecap="round" stroke-linejoin="round"/>
<path fill-rule="evenodd" clip-rule="evenodd" d="M287 232H328H287Z" fill="white"/>
<path d="M287 232H328" stroke="#66D7D1" stroke-width="2" stroke-linecap="round" stroke-linejoin="round"/>
<path fill-rule="evenodd" clip-rule="evenodd" d="M345 232H372H345Z" fill="white"/>
<path d="M345 232H372" stroke="#66D7D1" stroke-width="2" stroke-linecap="round" stroke-linejoin="round"/>
<path fill-rule="evenodd" clip-rule="evenodd" d="M388 232H423H388Z" fill="white"/>
<path d="M388 232H423" stroke="#66D7D1" stroke-width="2" stroke-linecap="round" stroke-linejoin="round"/>
<path fill-rule="evenodd" clip-rule="evenodd" d="M690 232H705H690Z" fill="white"/>
<path d="M690 232H705" stroke="#DCDEE0" stroke-width="2" stroke-linecap="round" stroke-linejoin="round"/>
<path d="M201.808 241.613C207.225 241.613 211.616 237.222 211.616 231.806C211.616 226.39 207.225 222 201.808 222C196.391 222 192 226.39 192 231.806C192 237.222 196.391 241.613 201.808 241.613Z" fill="#66D7D1"/>
<path fill-rule="evenodd" clip-rule="evenodd" d="M176 247H710H176Z" fill="white"/>
<path d="M176 247H710" stroke="#E6E6E6" stroke-linecap="round" stroke-linejoin="round"/>
<path fill-rule="evenodd" clip-rule="evenodd" d="M176 446H710H176Z" fill="white"/>
<path d="M176 446H710" stroke="#E6E6E6" stroke-linecap="round" stroke-linejoin="round"/>
<path fill-rule="evenodd" clip-rule="evenodd" d="M227.304 195.561C229.869 195.561 231.831 197.522 231.831 200.087C231.831 202.652 229.869 204.613 227.304 204.613C224.739 204.613 222.777 202.652 222.777 200.087C222.777 197.522 224.739 195.561 227.304 195.561ZM212.215 195.561C214.78 195.561 216.742 197.522 216.742 200.087C216.742 202.652 214.78 204.613 212.215 204.613C209.65 204.613 207.688 202.652 207.688 200.087C207.688 197.522 209.65 195.561 212.215 195.561ZM197.125 195.561C199.691 195.561 201.652 197.522 201.652 200.087C201.652 202.652 199.691 204.613 197.125 204.613C194.56 204.613 192.599 202.652 192.599 200.087C192.599 197.522 194.56 195.561 197.125 195.561Z" fill="#66D7D1"/>
<path fill-rule="evenodd" clip-rule="evenodd" d="M176 215H710H176Z" fill="white"/>
<path d="M176 215H710" stroke="#E6E6E6" stroke-linecap="round" stroke-linejoin="round"/>
<path d="M693.569 197.07L698.096 201.596L693.569 206.122" stroke="#403D58"/>
<path d="M674.405 197.07L669.878 201.596L674.405 206.122" stroke="#403D58"/>
<path fill-rule="evenodd" clip-rule="evenodd" d="M554 516H612H554Z" fill="white"/>
<path d="M554 516H612" stroke="#DCDEE0" stroke-width="2" stroke-linecap="round" stroke-linejoin="round"/>
<path fill-rule="evenodd" clip-rule="evenodd" d="M554 524H598H554Z" fill="white"/>
<path d="M554 524H598" stroke="#DCDEE0" stroke-width="2" stroke-linecap="round" stroke-linejoin="round"/>
<path fill-rule="evenodd" clip-rule="evenodd" d="M554 541H618H554Z" fill="white"/>
<path d="M554 541H618" stroke="#DCDEE0" stroke-width="2" stroke-linecap="round" stroke-linejoin="round"/>
<path fill-rule="evenodd" clip-rule="evenodd" d="M409 516H467H409Z" fill="white"/>
<path d="M409 516H467" stroke="#DCDEE0" stroke-width="2" stroke-linecap="round" stroke-linejoin="round"/>
<path fill-rule="evenodd" clip-rule="evenodd" d="M409 524H453H409Z" fill="white"/>
<path d="M409 524H453" stroke="#DCDEE0" stroke-width="2" stroke-linecap="round" stroke-linejoin="round"/>
<path fill-rule="evenodd" clip-rule="evenodd" d="M409 541H473H409Z" fill="white"/>
<path d="M409 541H473" stroke="#DCDEE0" stroke-width="2" stroke-linecap="round" stroke-linejoin="round"/>
<path fill-rule="evenodd" clip-rule="evenodd" d="M264 516H322H264Z" fill="white"/>
<path d="M264 516H322" stroke="#DCDEE0" stroke-width="2" stroke-linecap="round" stroke-linejoin="round"/>
<path fill-rule="evenodd" clip-rule="evenodd" d="M264 524H308H264Z" fill="white"/>
<path d="M264 524H308" stroke="#DCDEE0" stroke-width="2" stroke-linecap="round" stroke-linejoin="round"/>
<path fill-rule="evenodd" clip-rule="evenodd" d="M264 541H328H264Z" fill="white"/>
<path d="M264 541H328" stroke="#DCDEE0" stroke-width="2" stroke-linecap="round" stroke-linejoin="round"/>
<path d="M554 499H621" stroke="#66D7D1" stroke-width="4" stroke-linecap="round"/>
<path d="M409 499H476" stroke="#66D7D1" stroke-width="4" stroke-linecap="round"/>
<path d="M264 499H331" stroke="#66D7D1" stroke-width="4" stroke-linecap="round"/>
<mask id="path-90-inside-1_70_1468" fill="white">
<path d="M242 491C242 485.477 246.477 481 252 481H343C348.523 481 353 485.477 353 491V550H242V491Z"/>
</mask>
<path d="M241 491C241 484.925 245.925 480 252 480H343C349.075 480 354 484.925 354 491H352C352 486.029 347.971 482 343 482H252C247.029 482 243 486.029 243 491H241ZM353 550H242H353ZM241 550V491C241 484.925 245.925 480 252 480V482C247.029 482 243 486.029 243 491V550H241ZM343 480C349.075 480 354 484.925 354 491V550H352V491C352 486.029 347.971 482 343 482V480Z" fill="#DCDEE0" mask="url(#path-90-inside-1_70_1468)"/>
<mask id="path-92-inside-2_70_1468" fill="white">
<path d="M532 491C532 485.477 536.477 481 542 481H633C638.523 481 643 485.477 643 491V550H532V491Z"/>
</mask>
<path d="M531 491C531 484.925 535.925 480 542 480H633C639.075 480 644 484.925 644 491H642C642 486.029 637.971 482 633 482H542C537.029 482 533 486.029 533 491H531ZM643 550H532H643ZM531 550V491C531 484.925 535.925 480 542 480V482C537.029 482 533 486.029 533 491V550H531ZM633 480C639.075 480 644 484.925 644 491V550H642V491C642 486.029 637.971 482 633 482V480Z" fill="#DCDEE0" mask="url(#path-92-inside-2_70_1468)"/>
<mask id="path-94-inside-3_70_1468" fill="white">
<path d="M387 491C387 485.477 391.477 481 397 481H488C493.523 481 498 485.477 498 491V550H387V491Z"/>
</mask>
<path d="M386 491C386 484.925 390.925 480 397 480H488C494.075 480 499 484.925 499 491H497C497 486.029 492.971 482 488 482H397C392.029 482 388 486.029 388 491H386ZM498 550H387H498ZM386 550V491C386 484.925 390.925 480 397 480V482C392.029 482 388 486.029 388 491V550H386ZM488 480C494.075 480 499 484.925 499 491V550H497V491C497 486.029 492.971 482 488 482V480Z" fill="#DCDEE0" mask="url(#path-94-inside-3_70_1468)"/>
</g>
<defs>
<filter id="filter0_d_70_1468" x="31.5" y="33.4888" width="551" height="373.102" filterUnits="userSpaceOnUse" color-interpolation-filters="sRGB">
<feFlood flood-opacity="0" result="BackgroundImageFix"/>
<feColorMatrix in="SourceAlpha" type="matrix" values="0 0 0 0 0 0 0 0 0 0 0 0 0 0 0 0 0 0 127 0" result="hardAlpha"/>
<feOffset dx="-12" dy="-4"/>
<feGaussianBlur stdDeviation="2"/>
<feComposite in2="hardAlpha" operator="out"/>
<feColorMatrix type="matrix" values="0 0 0 0 0 0 0 0 0 0 0 0 0 0 0 0 0 0 0.25 0"/>
<feBlend mode="normal" in2="BackgroundImageFix" result="effect1_dropShadow_70_1468"/>
<feBlend mode="normal" in="SourceGraphic" in2="effect1_dropShadow_70_1468" result="shape"/>
</filter>
<filter id="filter1_d_70_1468" x="159.5" y="177" width="551" height="373.102" filterUnits="userSpaceOnUse" color-interpolation-filters="sRGB">
<feFlood flood-opacity="0" result="BackgroundImageFix"/>
<feColorMatrix in="SourceAlpha" type="matrix" values="0 0 0 0 0 0 0 0 0 0 0 0 0 0 0 0 0 0 127 0" result="hardAlpha"/>
<feOffset dx="-12" dy="-4"/>
<feGaussianBlur stdDeviation="2"/>
<feComposite in2="hardAlpha" operator="out"/>
<feColorMatrix type="matrix" values="0 0 0 0 0 0 0 0 0 0 0 0 0 0 0 0 0 0 0.25 0"/>
<feBlend mode="normal" in2="BackgroundImageFix" result="effect1_dropShadow_70_1468"/>
<feBlend mode="normal" in="SourceGraphic" in2="effect1_dropShadow_70_1468" result="shape"/>
</filter>
</defs>
</svg>
