<svg width="940" height="657" viewBox="0 0 940 657" fill="none" xmlns="http://www.w3.org/2000/svg">
   <mask id="path-1-inside-1_293_5229" fill="white">
   <path d="M0 20.0001C0 8.95443 8.9543 0.00012207 20 0.00012207H940V657H20C8.9543 657 0 648.046 0 637V20.0001Z"/>
   </mask>
   <path d="M-2 20.0001C-2 7.84986 7.84974 -1.99988 20 -1.99988H940V2.00012H20C10.0589 2.00012 2 10.059 2 20.0001H-2ZM940 659H20C7.84974 659 -2 649.15 -2 637H2C2 646.941 10.0589 655 20 655H940V659ZM20 659C7.84974 659 -2 649.15 -2 637V20.0001C-2 7.84986 7.84974 -1.99988 20 -1.99988V2.00012C10.0589 2.00012 2 10.059 2 20.0001V637C2 646.941 10.0589 655 20 655V659ZM940 0.00012207V657V0.00012207Z" fill="#DCDEE0" mask="url(#path-1-inside-1_293_5229)"/>
   </svg>
   