<svg width="367" height="295" viewBox="0 0 367 295" fill="none" xmlns="http://www.w3.org/2000/svg">
<g filter="url(#filter0_d_210_2301)">
<rect x="213.501" width="149.499" height="180.685" rx="15" fill="#403D58"/>
</g>
<rect x="227.857" y="121.777" width="120.292" height="38.6122" rx="5" fill="#534F74"/>
<circle cx="336.268" cy="133.162" r="3.96023" fill="#C8B100"/>
<circle cx="336.268" cy="148.013" r="3.96023" fill="#66D7D1"/>
<rect x="235.283" y="126.727" width="9.40554" height="28.7117" rx="4.70277" fill="#756F9E"/>
<rect x="251.124" y="126.727" width="9.40554" height="28.7117" rx="4.70277" fill="#756F9E"/>
<rect x="266.965" y="126.727" width="9.40554" height="28.7117" rx="4.70277" fill="#756F9E"/>
<rect x="283.3" y="126.727" width="9.40554" height="28.7117" rx="4.70277" fill="#756F9E"/>
<rect x="299.636" y="126.727" width="9.40554" height="28.7117" rx="4.70277" fill="#756F9E"/>
<rect x="315.972" y="126.727" width="9.40554" height="28.7117" rx="4.70277" fill="#756F9E"/>
<rect x="227.857" y="68.8086" width="120.292" height="38.6122" rx="5" fill="#534F74"/>
<circle cx="336.268" cy="80.1941" r="3.96023" fill="#C8B100"/>
<circle cx="336.268" cy="95.0449" r="3.96023" fill="#66D7D1"/>
<rect x="235.283" y="73.7593" width="9.40554" height="28.7117" rx="4.70277" fill="#756F9E"/>
<rect x="251.124" y="73.7593" width="9.40554" height="28.7117" rx="4.70277" fill="#756F9E"/>
<rect x="266.965" y="73.7593" width="9.40554" height="28.7117" rx="4.70277" fill="#756F9E"/>
<rect x="283.3" y="73.7593" width="9.40554" height="28.7117" rx="4.70277" fill="#756F9E"/>
<rect x="299.636" y="73.7593" width="9.40554" height="28.7117" rx="4.70277" fill="#756F9E"/>
<rect x="315.972" y="73.7593" width="9.40554" height="28.7117" rx="4.70277" fill="#756F9E"/>
<rect x="227.857" y="15.8406" width="120.292" height="38.6122" rx="5" fill="#534F74"/>
<circle cx="336.268" cy="27.2266" r="3.96023" fill="#C8B100"/>
<circle cx="336.268" cy="42.0774" r="3.96023" fill="#66D7D1"/>
<rect x="235.283" y="20.7905" width="9.40554" height="28.7117" rx="4.70277" fill="#756F9E"/>
<rect x="251.124" y="20.7905" width="9.40554" height="28.7117" rx="4.70277" fill="#756F9E"/>
<rect x="266.965" y="20.7905" width="9.40554" height="28.7117" rx="4.70277" fill="#756F9E"/>
<rect x="283.3" y="20.7905" width="9.40554" height="28.7117" rx="4.70277" fill="#756F9E"/>
<rect x="299.636" y="20.7905" width="9.40554" height="28.7117" rx="4.70277" fill="#756F9E"/>
<rect x="315.972" y="20.7905" width="9.40554" height="28.7117" rx="4.70277" fill="#756F9E"/>
<g filter="url(#filter1_d_210_2301)">
<rect x="4" width="149.499" height="180.685" rx="15" fill="#403D58"/>
</g>
<rect x="18.3558" y="121.777" width="120.292" height="38.6122" rx="5" fill="#534F74"/>
<circle cx="126.767" cy="133.162" r="3.96023" fill="#C8B100"/>
<circle cx="126.767" cy="148.013" r="3.96023" fill="#66D7D1"/>
<rect x="25.7813" y="126.727" width="9.40554" height="28.7117" rx="4.70277" fill="#756F9E"/>
<rect x="41.6222" y="126.727" width="9.40554" height="28.7117" rx="4.70277" fill="#756F9E"/>
<rect x="57.4631" y="126.727" width="9.40554" height="28.7117" rx="4.70277" fill="#756F9E"/>
<rect x="73.799" y="126.727" width="9.40554" height="28.7117" rx="4.70277" fill="#756F9E"/>
<rect x="90.135" y="126.727" width="9.40554" height="28.7117" rx="4.70277" fill="#756F9E"/>
<rect x="106.471" y="126.727" width="9.40554" height="28.7117" rx="4.70277" fill="#756F9E"/>
<rect x="18.3558" y="68.8086" width="120.292" height="38.6122" rx="5" fill="#534F74"/>
<circle cx="126.767" cy="80.1941" r="3.96023" fill="#C8B100"/>
<circle cx="126.767" cy="95.0449" r="3.96023" fill="#66D7D1"/>
<rect x="25.7813" y="73.7593" width="9.40554" height="28.7117" rx="4.70277" fill="#756F9E"/>
<rect x="41.6222" y="73.7593" width="9.40554" height="28.7117" rx="4.70277" fill="#756F9E"/>
<rect x="57.4631" y="73.7593" width="9.40554" height="28.7117" rx="4.70277" fill="#756F9E"/>
<rect x="73.799" y="73.7593" width="9.40554" height="28.7117" rx="4.70277" fill="#756F9E"/>
<rect x="90.135" y="73.7593" width="9.40554" height="28.7117" rx="4.70277" fill="#756F9E"/>
<rect x="106.471" y="73.7593" width="9.40554" height="28.7117" rx="4.70277" fill="#756F9E"/>
<rect x="18.3558" y="15.8406" width="120.292" height="38.6122" rx="5" fill="#534F74"/>
<circle cx="126.767" cy="27.2266" r="3.96023" fill="#C8B100"/>
<circle cx="126.767" cy="42.0774" r="3.96023" fill="#66D7D1"/>
<rect x="25.7813" y="20.7905" width="9.40554" height="28.7117" rx="4.70277" fill="#756F9E"/>
<rect x="41.6222" y="20.7905" width="9.40554" height="28.7117" rx="4.70277" fill="#756F9E"/>
<rect x="57.4631" y="20.7905" width="9.40554" height="28.7117" rx="4.70277" fill="#756F9E"/>
<rect x="73.799" y="20.7905" width="9.40554" height="28.7117" rx="4.70277" fill="#756F9E"/>
<rect x="90.135" y="20.7905" width="9.40554" height="28.7117" rx="4.70277" fill="#756F9E"/>
<rect x="106.471" y="20.7905" width="9.40554" height="28.7117" rx="4.70277" fill="#756F9E"/>
<g filter="url(#filter2_d_210_2301)">
<rect x="88.4108" y="65.5459" width="183.06" height="221.247" rx="15" fill="#403D58"/>
</g>
<rect x="105.989" y="214.66" width="147.296" height="47.2803" rx="5" fill="#534F74"/>
<circle cx="238.738" cy="228.602" r="4.84926" fill="#C8B100"/>
<circle cx="238.738" cy="246.786" r="4.84926" fill="#66D7D1"/>
<rect x="115.082" y="220.721" width="11.517" height="35.1571" rx="5" fill="#756F9E"/>
<rect x="134.479" y="220.721" width="11.517" height="35.1571" rx="5" fill="#756F9E"/>
<rect x="153.876" y="220.721" width="11.517" height="35.1571" rx="5" fill="#756F9E"/>
<rect x="173.879" y="220.721" width="11.517" height="35.1571" rx="5" fill="#756F9E"/>
<rect x="193.882" y="220.721" width="11.517" height="35.1571" rx="5" fill="#756F9E"/>
<rect x="213.885" y="220.721" width="11.517" height="35.1571" rx="5" fill="#756F9E"/>
<rect x="105.989" y="149.802" width="147.296" height="47.2803" rx="5" fill="#534F74"/>
<circle cx="238.738" cy="163.743" r="4.84926" fill="#C8B100"/>
<circle cx="238.738" cy="181.927" r="4.84926" fill="#66D7D1"/>
<rect x="115.082" y="155.863" width="11.517" height="35.1571" rx="5" fill="#756F9E"/>
<rect x="134.479" y="155.863" width="11.517" height="35.1571" rx="5" fill="#756F9E"/>
<rect x="153.876" y="155.863" width="11.517" height="35.1571" rx="5" fill="#756F9E"/>
<rect x="173.879" y="155.863" width="11.517" height="35.1571" rx="5" fill="#756F9E"/>
<rect x="193.882" y="155.863" width="11.517" height="35.1571" rx="5" fill="#756F9E"/>
<rect x="213.885" y="155.863" width="11.517" height="35.1571" rx="5" fill="#756F9E"/>
<rect x="105.989" y="84.9426" width="147.296" height="47.2803" rx="5" fill="#534F74"/>
<circle cx="238.738" cy="98.8839" r="4.84926" fill="#C8B100"/>
<circle cx="238.738" cy="117.069" r="4.84926" fill="#66D7D1"/>
<rect x="115.082" y="91.0042" width="11.517" height="35.1571" rx="5" fill="#756F9E"/>
<rect x="134.479" y="91.0042" width="11.517" height="35.1571" rx="5" fill="#756F9E"/>
<rect x="153.876" y="91.0042" width="11.517" height="35.1571" rx="5" fill="#756F9E"/>
<rect x="173.879" y="91.0042" width="11.517" height="35.1571" rx="5" fill="#756F9E"/>
<rect x="193.882" y="91.0042" width="11.517" height="35.1571" rx="5" fill="#756F9E"/>
<rect x="213.885" y="91.0042" width="11.517" height="35.1571" rx="5" fill="#756F9E"/>
<defs>
<filter id="filter0_d_210_2301" x="209.501" y="0" width="157.499" height="188.685" filterUnits="userSpaceOnUse" color-interpolation-filters="sRGB">
<feFlood flood-opacity="0" result="BackgroundImageFix"/>
<feColorMatrix in="SourceAlpha" type="matrix" values="0 0 0 0 0 0 0 0 0 0 0 0 0 0 0 0 0 0 127 0" result="hardAlpha"/>
<feOffset dy="4"/>
<feGaussianBlur stdDeviation="2"/>
<feComposite in2="hardAlpha" operator="out"/>
<feColorMatrix type="matrix" values="0 0 0 0 0 0 0 0 0 0 0 0 0 0 0 0 0 0 0.25 0"/>
<feBlend mode="normal" in2="BackgroundImageFix" result="effect1_dropShadow_210_2301"/>
<feBlend mode="normal" in="SourceGraphic" in2="effect1_dropShadow_210_2301" result="shape"/>
</filter>
<filter id="filter1_d_210_2301" x="0" y="0" width="157.499" height="188.685" filterUnits="userSpaceOnUse" color-interpolation-filters="sRGB">
<feFlood flood-opacity="0" result="BackgroundImageFix"/>
<feColorMatrix in="SourceAlpha" type="matrix" values="0 0 0 0 0 0 0 0 0 0 0 0 0 0 0 0 0 0 127 0" result="hardAlpha"/>
<feOffset dy="4"/>
<feGaussianBlur stdDeviation="2"/>
<feComposite in2="hardAlpha" operator="out"/>
<feColorMatrix type="matrix" values="0 0 0 0 0 0 0 0 0 0 0 0 0 0 0 0 0 0 0.25 0"/>
<feBlend mode="normal" in2="BackgroundImageFix" result="effect1_dropShadow_210_2301"/>
<feBlend mode="normal" in="SourceGraphic" in2="effect1_dropShadow_210_2301" result="shape"/>
</filter>
<filter id="filter2_d_210_2301" x="84.4108" y="65.5459" width="191.06" height="229.247" filterUnits="userSpaceOnUse" color-interpolation-filters="sRGB">
<feFlood flood-opacity="0" result="BackgroundImageFix"/>
<feColorMatrix in="SourceAlpha" type="matrix" values="0 0 0 0 0 0 0 0 0 0 0 0 0 0 0 0 0 0 127 0" result="hardAlpha"/>
<feOffset dy="4"/>
<feGaussianBlur stdDeviation="2"/>
<feComposite in2="hardAlpha" operator="out"/>
<feColorMatrix type="matrix" values="0 0 0 0 0 0 0 0 0 0 0 0 0 0 0 0 0 0 0.25 0"/>
<feBlend mode="normal" in2="BackgroundImageFix" result="effect1_dropShadow_210_2301"/>
<feBlend mode="normal" in="SourceGraphic" in2="effect1_dropShadow_210_2301" result="shape"/>
</filter>
</defs>
</svg>
