<svg width="1920" height="490" viewBox="0 0 1920 490" fill="none" xmlns="http://www.w3.org/2000/svg">
<g clip-path="url(#clip0_70_1070)">
<path d="M1920 343L1890.93 351.2C1861.87 359 1804 376 1745.33 400.2C1687.33 425 1629.33 457 1570.67 449.2C1512.67 441 1454.67 392 1396 343C1338.13 294 1280 245 1221.33 253.2C1163.6 261 1105.33 327 1046.67 343C989.067 359 930.667 327 873.333 310.3C814.533 294 756 294 698.667 326.7C640 359 581.333 425 524 432.8C465.467 441 406.667 392 349.333 392C290.933 392 233.333 441 174.667 424.7C116.4 408 58.6666 327 0 326.7C-58.1334 327 -116 408 -174.667 441C-232.667 474 -290.667 457 -349.333 408.3C-407.333 359 -465.333 278 -524 212.3C-581.867 147 -640 98 -698.667 114.3C-756.4 131 -814.667 212 -873.333 277.7C-930.933 343 -989.333 392 -1046.67 400.2C-1105.47 408 -1164 376 -1221.33 383.8C-1280 392 -1338.67 441 -1396 392C-1454.53 343 -1513.33 196 -1570.67 187.8C-1629.07 180 -1686.67 310 -1745.33 310.3C-1803.6 310 -1861.33 180 -1920 114.3C-1978.13 49 -2036 49 -2094.67 65.3C-2152.67 82 -2210.67 114 -2240 130.7L-2269.07 147V0H-2240C-2210.93 0 -2153.33 0 -2094.67 0C-2036.4 0 -1978.67 0 -1920 0C-1861.87 0 -1804 0 -1745.33 0C-1687.33 0 -1629.33 0 -1570.67 0C-1512.67 0 -1454.67 0 -1396 0C-1338.13 0 -1280 0 -1221.33 0C-1163.6 0 -1105.33 0 -1046.67 0C-989.067 0 -930.667 0 -873.333 0C-814.533 0 -756 0 -698.667 0C-640 0 -581.333 0 -524 0C-465.467 0 -406.667 0 -349.333 0C-290.933 0 -233.333 0 -174.667 0C-116.4 0 -58.6667 0 0 0C58.1333 0 116 0 174.667 0C232.667 0 290.667 0 349.333 0C407.333 0 465.333 0 524 0C581.867 0 640 0 698.667 0C756.4 0 814.667 0 873.333 0C930.933 0 989.333 0 1046.67 0C1105.47 0 1164 0 1221.33 0C1280 0 1338.67 0 1396 0C1454.53 0 1513.33 0 1570.67 0C1629.07 0 1686.67 0 1745.33 0C1803.6 0 1861.33 0 1890.67 0H1920V343Z" fill="url(#paint0_linear_70_1070)"/>
<path opacity="0.9" d="M1920 196L1890.93 228.7C1861.87 261 1804 327 1745.33 359.3C1687.33 392 1629.33 392 1570.67 359.3C1512.67 327 1454.67 261 1396 204.2C1338.13 147 1280 98 1221.33 81.7C1163.6 65 1105.33 82 1046.67 138.8C989.067 196 930.667 294 873.333 326.7C814.533 359 756 327 698.667 310.3C640 294 581.333 294 524 277.7C465.467 261 406.667 229 349.333 245C290.933 261 233.333 327 174.667 375.7C116.4 425 58.6666 457 0 424.7C-58.1334 392 -116 294 -174.667 277.7C-232.667 261 -290.667 327 -349.333 334.8C-407.333 343 -465.333 294 -524 253.2C-581.867 212 -640 180 -698.667 147C-756.4 114 -814.667 82 -873.333 106.2C-930.933 131 -989.333 212 -1046.67 285.8C-1105.47 359 -1164 425 -1221.33 432.8C-1280 441 -1338.67 392 -1396 392C-1454.53 392 -1513.33 441 -1570.67 449.2C-1629.07 457 -1686.67 425 -1745.33 383.8C-1803.6 343 -1861.33 294 -1920 261.3C-1978.13 229 -2036 212 -2094.67 196C-2152.67 180 -2210.67 163 -2240 155.2L-2269.07 147V0H-2240C-2210.93 0 -2153.33 0 -2094.67 0C-2036.4 0 -1978.67 0 -1920 0C-1861.87 0 -1804 0 -1745.33 0C-1687.33 0 -1629.33 0 -1570.67 0C-1512.67 0 -1454.67 0 -1396 0C-1338.13 0 -1280 0 -1221.33 0C-1163.6 0 -1105.33 0 -1046.67 0C-989.067 0 -930.667 0 -873.333 0C-814.533 0 -756 0 -698.667 0C-640 0 -581.333 0 -524 0C-465.467 0 -406.667 0 -349.333 0C-290.933 0 -233.333 0 -174.667 0C-116.4 0 -58.6667 0 0 0C58.1333 0 116 0 174.667 0C232.667 0 290.667 0 349.333 0C407.333 0 465.333 0 524 0C581.867 0 640 0 698.667 0C756.4 0 814.667 0 873.333 0C930.933 0 989.333 0 1046.67 0C1105.47 0 1164 0 1221.33 0C1280 0 1338.67 0 1396 0C1454.53 0 1513.33 0 1570.67 0C1629.07 0 1686.67 0 1745.33 0C1803.6 0 1861.33 0 1890.67 0H1920V196Z" fill="url(#paint1_linear_70_1070)"/>
</g>
<defs>
<linearGradient id="paint0_linear_70_1070" x1="1920" y1="0" x2="1920" y2="458.061" gradientUnits="userSpaceOnUse">
<stop stop-color="#403D58"/>
<stop offset="1" stop-color="#E71D36"/>
</linearGradient>
<linearGradient id="paint1_linear_70_1070" x1="1920" y1="0" x2="1920" y2="450.377" gradientUnits="userSpaceOnUse">
<stop stop-color="#403D58"/>
<stop offset="1" stop-color="#E71D36"/>
</linearGradient>
<clipPath id="clip0_70_1070">
<rect width="1920" height="490" fill="white" transform="translate(1920 490) rotate(180)"/>
</clipPath>
</defs>
</svg>
