<svg xmlns="http://www.w3.org/2000/svg" xmlns:xlink="http://www.w3.org/1999/xlink" xmlns:lucid="lucid" width="1017.77" height="898.16"><g transform="translate(-457.66199455501976 2256.422712811488)" lucid:page-tab-id="0_0"><path d="M815.43-2236.4h120v120h-120z" stroke="#000" stroke-opacity="0" stroke-width="3" fill="#f2f3f5"/><path d="M935.43-2236.4h120v120h-120z" stroke="#000" stroke-opacity="0" stroke-width="3" fill="#ecc1bf"/><path d="M815.43-2116.4h120v120h-120z" stroke="#000" stroke-opacity="0" stroke-width="3" fill="#b2f1ec"/><path d="M935.43-2116.4h120v120h-120z" stroke="#000" stroke-opacity="0" stroke-width="3" fill="#f2f3f5"/><path d="M1055.43-2236.4h120v120h-120z" stroke="#000" stroke-opacity="0" stroke-width="3" fill="#dd827f"/><path d="M1175.43-2236.4h120v120h-120z" stroke="#000" stroke-opacity="0" stroke-width="3" fill="#e26561"/><path d="M1055.43-2116.4h120v120h-120z" stroke="#000" stroke-opacity="0" stroke-width="3" fill="#ecc1bf"/><path d="M1175.43-2116.4h120v120h-120z" stroke="#000" stroke-opacity="0" stroke-width="3" fill="#dd827f"/><path d="M1295.43-2236.4h120v120h-120z" stroke="#000" stroke-opacity="0" stroke-width="3" fill="#ef4641"/><path d="M1295.43-2116.4h120v120h-120z" stroke="#000" stroke-opacity="0" stroke-width="3" fill="#e26561"/><path d="M815.43-1996.4h120v120h-120z" stroke="#000" stroke-opacity="0" stroke-width="3" fill="#5ce2d7"/><path d="M935.43-1996.4h120v120h-120z" stroke="#000" stroke-opacity="0" stroke-width="3" fill="#b2f1ec"/><path d="M815.43-1876.4h120v120h-120z" stroke="#000" stroke-opacity="0" stroke-width="3" fill="#35c7bb"/><path d="M935.43-1876.4h120v120h-120z" stroke="#000" stroke-opacity="0" stroke-width="3" fill="#5ce2d7"/><path d="M1055.43-1996.4h120v120h-120z" stroke="#000" stroke-opacity="0" stroke-width="3" fill="#f2f3f5"/><path d="M1175.43-1996.4h120v120h-120z" stroke="#000" stroke-opacity="0" stroke-width="3" fill="#ecc1bf"/><path d="M1055.43-1876.4h120v120h-120z" stroke="#000" stroke-opacity="0" stroke-width="3" fill="#b2f1ec"/><path d="M1175.43-1876.4h120v120h-120z" stroke="#000" stroke-opacity="0" stroke-width="3" fill="#f2f3f5"/><path d="M1295.43-1996.4h120v120h-120z" stroke="#000" stroke-opacity="0" stroke-width="3" fill="#dd827f"/><path d="M1295.43-1876.4h120v120h-120z" stroke="#000" stroke-opacity="0" stroke-width="3" fill="#ecc1bf"/><path d="M815.43-1756.4h120v120h-120z" stroke="#000" stroke-opacity="0" stroke-width="3" fill="#00aa9b"/><path d="M935.43-1756.4h120v120h-120z" stroke="#000" stroke-opacity="0" stroke-width="3" fill="#35c7bb"/><path d="M1055.43-1756.4h120v120h-120z" stroke="#000" stroke-opacity="0" stroke-width="3" fill="#5ce2d7"/><path d="M1175.43-1756.4h120v120h-120z" stroke="#000" stroke-opacity="0" stroke-width="3" fill="#b2f1ec"/><path d="M1295.43-1756.4h120v120h-120z" stroke="#000" stroke-opacity="0" stroke-width="3" fill="#f2f3f5"/><path d="M761.87-1636.48a6 6 0 0 1-6-6l.8-563.87a6 6 0 0 0-5.98-6h-1.34a2.3 2.3 0 0 1-1.54-4.02l17.77-15.95a6.67 6.67 0 0 1 8.9 0l17.74 16a2.3 2.3 0 0 1-1.55 4.02h-1.34a6 6 0 0 0-6 6l-.8 563.85a6 6 0 0 1-6.02 6z" stroke="#333" stroke-width="3" fill="#333"/><path d="M483.66-1784.48a6 6 0 0 1-6-6v-291.87a6 6 0 0 1 6-6h76.3a6 6 0 0 1 6 6v291.87a6 6 0 0 1-6 6z" fill="none"/><use xlink:href="#a" transform="matrix(6.123233995736766e-17,-1,1,6.123233995736766e-17,489.66199455501965,-1796.4774899007077) translate(36.88888888888896 40.49999999999999)"/><path d="M565.97-1750.4a6 6 0 0 1 6-6H736.6a6 6 0 0 1 6 6v108a6 6 0 0 1-6 6H571.96a6 6 0 0 1-6-6z" fill="none"/><use xlink:href="#b" transform="matrix(1,0,0,1,577.9719673301202,-1744.4115148215851) translate(109.4814814814815 39.111111111111114)"/><use xlink:href="#c" transform="matrix(1,0,0,1,577.9719673301202,-1744.4115148215851) translate(43.37037037037038 65.77777777777777)"/><path d="M565.97-1870.4a6 6 0 0 1 6-6H736.6a6 6 0 0 1 6 6v108a6 6 0 0 1-6 6H571.96a6 6 0 0 1-6-6z" fill="none"/><use xlink:href="#d" transform="matrix(1,0,0,1,577.9719673301202,-1864.4115148215853) translate(42.074074074074105 52.44444444444444)"/><path d="M565.97-1990.4a6 6 0 0 1 6-6H736.6a6 6 0 0 1 6 6v108a6 6 0 0 1-6 6H571.96a6 6 0 0 1-6-6z" fill="none"/><use xlink:href="#e" transform="matrix(1,0,0,1,577.9719673301202,-1984.3955703810382) translate(77.81481481481484 52.44444444444444)"/><path d="M565.97-2110.4a6 6 0 0 1 6-6H736.6a6 6 0 0 1 6 6v108a6 6 0 0 1-6 6H571.96a6 6 0 0 1-6-6z" fill="none"/><use xlink:href="#f" transform="matrix(1,0,0,1,577.9719673301202,-2104.395570381038) translate(64.23456790123458 52.44444444444444)"/><path d="M565.97-2230.42a6 6 0 0 1 6-6H736.6a6 6 0 0 1 6 6v108a6 6 0 0 1-6 6H571.96a6 6 0 0 1-6-6z" fill="none"/><use xlink:href="#g" transform="matrix(1,0,0,1,577.9719673301202,-2224.422712811488) translate(17.012345679012356 52.44444444444444)"/><use xlink:href="#h" transform="matrix(1,0,0,1,577.9719673301202,-2224.422712811488) translate(66.70370370370371 52.44444444444444)"/><path d="M815.46-1595.33a6 6 0 0 1 6-6h560.8a6 6 0 0 0 6-6v-3.1a2.3 2.3 0 0 1 4.02-1.53l19.14 21.27a6.67 6.67 0 0 1 0 8.93l-19.14 21.27a2.3 2.3 0 0 1-4.02-1.54v-3.1a6 6 0 0 0-6-6h-560.8a6 6 0 0 1-6-6z" stroke="#333" stroke-width="3" fill="#333"/><path d="M996.22-1448.7a6 6 0 0 1 6-6h226.46a6 6 0 0 1 6 6v64.44a6 6 0 0 1-6 6h-226.46a6 6 0 0 1-6-6z" fill="none"/><use xlink:href="#i" transform="matrix(1,0,0,1,1008.2214875969253,-1442.6866666666665) translate(43.16666666666673 34.49999999999999)"/><path d="M775.43-1550.04a6 6 0 0 1 6-6h188a6 6 0 0 1 6 6v38.68a6 6 0 0 1-6 6h-188a6 6 0 0 1-6-6z" fill="none"/><use xlink:href="#j" transform="matrix(1,0,0,1,787.4330708661415,-1544.04) translate(35.00617283950619 17.944444444444443)"/><path d="M895.43-1499.36a6 6 0 0 1 6-6h188a6 6 0 0 1 6 6v38.67a6 6 0 0 1-6 6h-188a6 6 0 0 1-6-6z" fill="none"/><use xlink:href="#k" transform="matrix(1,0,0,1,907.4330708661416,-1493.3633333333332) translate(54.14197530864198 17.944444444444443)"/><path d="M1014.66-1550.04a6 6 0 0 1 6-6h188a6 6 0 0 1 6 6v38.68a6 6 0 0 1-6 6h-188a6 6 0 0 1-6-6z" fill="none"/><use xlink:href="#e" transform="matrix(1,0,0,1,1026.6602930883637,-1544.04) translate(50.40740740740742 17.944444444444443)"/><path d="M1135.43-1499.36a6 6 0 0 1 6-6h188a6 6 0 0 1 6 6v38.67a6 6 0 0 1-6 6h-188a6 6 0 0 1-6-6z" fill="none"/><use xlink:href="#l" transform="matrix(1,0,0,1,1147.4330708661416,-1493.3633333333332) translate(54.14197530864198 17.944444444444443)"/><path d="M1255.43-1550.04a6 6 0 0 1 6-6h188a6 6 0 0 1 6 6v38.68a6 6 0 0 1-6 6h-188a6 6 0 0 1-6-6z" fill="none"/><use xlink:href="#m" transform="matrix(1,0,0,1,1267.4330708661419,-1544.04) translate(46.70370370370371 17.944444444444443)"/><path d="M1107.57-1879.35a10.06 10.06 0 0 1 14.18 0l56.2 55.9a9.94 9.94 0 0 1 0 14.1l-56.2 55.88a10.06 10.06 0 0 1-14.18 0l-56.2-55.9a9.94 9.94 0 0 1 0-14.1z" stroke="#000" stroke-opacity="0" fill="#252d4a"/><use xlink:href="#n" transform="matrix(1,0,0,1,1049.2739041994748,-1881.4035426013118) translate(51.33833333333333 70.59027777777777)"/><path d="M988.34-1759.35a10.06 10.06 0 0 1 14.18 0l56.2 55.9a9.94 9.94 0 0 1 0 14.1l-56.2 55.88a10.06 10.06 0 0 1-14.18 0l-56.2-55.9a9.94 9.94 0 0 1 0-14.1z" stroke="#000" stroke-opacity="0" fill="#252d4a"/><use xlink:href="#o" transform="matrix(1,0,0,1,930.0466819772528,-1761.4035426013115) translate(51.33833333333333 70.59027777777777)"/><path d="M1228.34-1879.35a10.06 10.06 0 0 1 14.18 0l56.2 55.9a9.94 9.94 0 0 1 0 14.1l-56.2 55.88a10.06 10.06 0 0 1-14.18 0l-56.2-55.9a9.94 9.94 0 0 1 0-14.1z" stroke="#000" stroke-opacity="0" fill="#252d4a"/><g><use xlink:href="#p" transform="matrix(1,0,0,1,1170.0466819772525,-1881.4035426013118) translate(51.33833333333333 70.59027777777777)"/></g><defs><path fill="#333" d="M24-248c93 1 206-16 204 79-1 75-69 88-152 82V0H24v-248zm52 121c47 0 100 7 100-41 0-47-54-39-100-39v80" id="q"/><path fill="#333" d="M135-150c-39-12-60 13-60 57V0H25l-1-190h47c2 13-1 29 3 40 6-28 27-53 61-41v41" id="r"/><path fill="#333" d="M110-194c64 0 96 36 96 99 0 64-35 99-97 99-61 0-95-36-95-99 0-62 34-99 96-99zm-1 164c35 0 45-28 45-65 0-40-10-65-43-65-34 0-45 26-45 65 0 36 10 65 43 65" id="s"/><path fill="#333" d="M135-194c52 0 70 43 70 98 0 56-19 99-73 100-30 1-46-15-58-35L72 0H24l1-261h50v104c11-23 29-37 60-37zM114-30c31 0 40-27 40-66 0-37-7-63-39-63s-41 28-41 65c0 36 8 64 40 64" id="t"/><path fill="#333" d="M133-34C117-15 103 5 69 4 32 3 11-16 11-54c-1-60 55-63 116-61 1-26-3-47-28-47-18 1-26 9-28 27l-52-2c7-38 36-58 82-57s74 22 75 68l1 82c-1 14 12 18 25 15v27c-30 8-71 5-69-32zm-48 3c29 0 43-24 42-57-32 0-66-3-65 30 0 17 8 27 23 27" id="u"/><path fill="#333" d="M25-224v-37h50v37H25zM25 0v-190h50V0H25" id="v"/><path fill="#333" d="M25 0v-261h50V0H25" id="w"/><path fill="#333" d="M115-3C79 11 28 4 28-45v-112H4v-33h27l15-45h31v45h36v33H77v99c-1 23 16 31 38 25v30" id="x"/><path fill="#333" d="M185-48c-13 30-37 53-82 52C43 2 14-33 14-96s30-98 90-98c62 0 83 45 84 108H66c0 31 8 55 39 56 18 0 30-7 34-22zm-45-69c5-46-57-63-70-21-2 6-4 13-4 21h74zm-67-91v-5l45-51h45v8l-60 48H73" id="y"/><g id="a"><use transform="matrix(0.11111111111111104,0,0,0.11111111111111104,0,0)" xlink:href="#q"/><use transform="matrix(0.11111111111111104,0,0,0.11111111111111104,26.66666666666665,0)" xlink:href="#r"/><use transform="matrix(0.11111111111111104,0,0,0.11111111111111104,42.22222222222219,0)" xlink:href="#s"/><use transform="matrix(0.11111111111111104,0,0,0.11111111111111104,66.55555555555551,0)" xlink:href="#t"/><use transform="matrix(0.11111111111111104,0,0,0.11111111111111104,90.88888888888883,0)" xlink:href="#u"/><use transform="matrix(0.11111111111111104,0,0,0.11111111111111104,113.11111111111103,0)" xlink:href="#t"/><use transform="matrix(0.11111111111111104,0,0,0.11111111111111104,137.44444444444434,0)" xlink:href="#v"/><use transform="matrix(0.11111111111111104,0,0,0.11111111111111104,148.55555555555546,0)" xlink:href="#w"/><use transform="matrix(0.11111111111111104,0,0,0.11111111111111104,159.66666666666657,0)" xlink:href="#v"/><use transform="matrix(0.11111111111111104,0,0,0.11111111111111104,170.7777777777777,0)" xlink:href="#x"/><use transform="matrix(0.11111111111111104,0,0,0.11111111111111104,183.9999999999999,0)" xlink:href="#y"/></g><path fill="#333" d="M127-220V0H93v-220H8v-28h204v28h-85" id="z"/><path fill="#333" d="M114-163C36-179 61-72 57 0H25l-1-190h30c1 12-1 29 2 39 6-27 23-49 58-41v29" id="A"/><path fill="#333" d="M100-194c63 0 86 42 84 106H49c0 40 14 67 53 68 26 1 43-12 49-29l28 8c-11 28-37 45-77 45C44 4 14-33 15-96c1-61 26-98 85-98zm52 81c6-60-76-77-97-28-3 7-6 17-6 28h103zm-36-98l-58-49v-5h36c12 19 30 32 38 54h-16" id="B"/><path fill="#333" d="M135-143c-3-34-86-38-87 0 15 53 115 12 119 90S17 21 10-45l28-5c4 36 97 45 98 0-10-56-113-15-118-90-4-57 82-63 122-42 12 7 21 19 24 35" id="C"/><g id="b"><use transform="matrix(0.061728395061728385,0,0,0.061728395061728385,0,0)" xlink:href="#z"/><use transform="matrix(0.061728395061728385,0,0,0.061728395061728385,12.716049382716047,0)" xlink:href="#A"/><use transform="matrix(0.061728395061728385,0,0,0.061728395061728385,20.061728395061724,0)" xlink:href="#B"/><use transform="matrix(0.061728395061728385,0,0,0.061728395061728385,32.407407407407405,0)" xlink:href="#C"/></g><path fill="#333" d="M24-231v-30h32v30H24zM24 0v-190h32V0H24" id="D"/><path fill="#333" d="M210-169c-67 3-38 105-44 169h-31v-121c0-29-5-50-35-48C34-165 62-65 56 0H25l-1-190h30c1 10-1 24 2 32 10-44 99-50 107 0 11-21 27-35 58-36 85-2 47 119 55 194h-31v-121c0-29-5-49-35-48" id="E"/><path fill="#333" d="M115-194c55 1 70 41 70 98S169 2 115 4C84 4 66-9 55-30l1 105H24l-1-265h31l2 30c10-21 28-34 59-34zm-8 174c40 0 45-34 45-75s-6-73-45-74c-42 0-51 32-51 76 0 43 10 73 51 73" id="F"/><path fill="#333" d="M100-194c62-1 85 37 85 99 1 63-27 99-86 99S16-35 15-95c0-66 28-99 85-99zM99-20c44 1 53-31 53-75 0-43-8-75-51-75s-53 32-53 75 10 74 51 75" id="G"/><path fill="#333" d="M115-194c53 0 69 39 70 98 0 66-23 100-70 100C84 3 66-7 56-30L54 0H23l1-261h32v101c10-23 28-34 59-34zm-8 174c40 0 45-34 45-75 0-40-5-75-45-74-42 0-51 32-51 76 0 43 10 73 51 73" id="H"/><path fill="#333" d="M141-36C126-15 110 5 73 4 37 3 15-17 15-53c-1-64 63-63 125-63 3-35-9-54-41-54-24 1-41 7-42 31l-33-3c5-37 33-52 76-52 45 0 72 20 72 64v82c-1 20 7 32 28 27v20c-31 9-61-2-59-35zM48-53c0 20 12 33 32 33 41-3 63-29 60-74-43 2-92-5-92 41" id="I"/><path fill="#333" d="M24 0v-261h32V0H24" id="J"/><path fill="#333" d="M100-194c63 0 86 42 84 106H49c0 40 14 67 53 68 26 1 43-12 49-29l28 8c-11 28-37 45-77 45C44 4 14-33 15-96c1-61 26-98 85-98zm52 81c6-60-76-77-97-28-3 7-6 17-6 28h103" id="K"/><g id="c"><use transform="matrix(0.061728395061728385,0,0,0.061728395061728385,0,0)" xlink:href="#D"/><use transform="matrix(0.061728395061728385,0,0,0.061728395061728385,4.876543209876543,0)" xlink:href="#E"/><use transform="matrix(0.061728395061728385,0,0,0.061728395061728385,23.33333333333333,0)" xlink:href="#F"/><use transform="matrix(0.061728395061728385,0,0,0.061728395061728385,35.679012345679006,0)" xlink:href="#A"/><use transform="matrix(0.061728395061728385,0,0,0.061728395061728385,43.02469135802468,0)" xlink:href="#G"/><use transform="matrix(0.061728395061728385,0,0,0.061728395061728385,55.37037037037036,0)" xlink:href="#H"/><use transform="matrix(0.061728395061728385,0,0,0.061728395061728385,67.71604938271604,0)" xlink:href="#I"/><use transform="matrix(0.061728395061728385,0,0,0.061728395061728385,80.06172839506172,0)" xlink:href="#H"/><use transform="matrix(0.061728395061728385,0,0,0.061728395061728385,92.40740740740739,0)" xlink:href="#J"/><use transform="matrix(0.061728395061728385,0,0,0.061728395061728385,97.28395061728394,0)" xlink:href="#K"/></g><path fill="#333" d="M33 0v-248h34V0H33" id="L"/><g id="d"><use transform="matrix(0.061728395061728385,0,0,0.061728395061728385,0,0)" xlink:href="#L"/><use transform="matrix(0.061728395061728385,0,0,0.061728395061728385,6.1728395061728385,0)" xlink:href="#E"/><use transform="matrix(0.061728395061728385,0,0,0.061728395061728385,24.629629629629626,0)" xlink:href="#F"/><use transform="matrix(0.061728395061728385,0,0,0.061728395061728385,36.9753086419753,0)" xlink:href="#A"/><use transform="matrix(0.061728395061728385,0,0,0.061728395061728385,44.32098765432098,0)" xlink:href="#G"/><use transform="matrix(0.061728395061728385,0,0,0.061728395061728385,56.66666666666666,0)" xlink:href="#H"/><use transform="matrix(0.061728395061728385,0,0,0.061728395061728385,69.01234567901233,0)" xlink:href="#I"/><use transform="matrix(0.061728395061728385,0,0,0.061728395061728385,81.358024691358,0)" xlink:href="#H"/><use transform="matrix(0.061728395061728385,0,0,0.061728395061728385,93.70370370370367,0)" xlink:href="#J"/><use transform="matrix(0.061728395061728385,0,0,0.061728395061728385,98.58024691358021,0)" xlink:href="#K"/></g><path fill="#333" d="M240 0l2-218c-23 76-54 145-80 218h-23L58-218 59 0H30v-248h44l77 211c21-75 51-140 76-211h43V0h-30" id="M"/><path fill="#333" d="M85-194c31 0 48 13 60 33l-1-100h32l1 261h-30c-2-10 0-23-3-31C134-8 116 4 85 4 32 4 16-35 15-94c0-66 23-100 70-100zm9 24c-40 0-46 34-46 75 0 40 6 74 45 74 42 0 51-32 51-76 0-42-9-74-50-73" id="N"/><path fill="#333" d="M100-194c63 0 86 42 84 106H49c0 40 14 67 53 68 26 1 43-12 49-29l28 8c-11 28-37 45-77 45C44 4 14-33 15-96c1-61 26-98 85-98zm52 81c6-60-76-77-97-28-3 7-6 17-6 28h103zm-74-98c8-23 27-35 38-54h36v5l-58 49H78" id="O"/><g id="e"><use transform="matrix(0.061728395061728385,0,0,0.061728395061728385,0,0)" xlink:href="#M"/><use transform="matrix(0.061728395061728385,0,0,0.061728395061728385,18.456790123456788,0)" xlink:href="#G"/><use transform="matrix(0.061728395061728385,0,0,0.061728395061728385,30.802469135802465,0)" xlink:href="#N"/><use transform="matrix(0.061728395061728385,0,0,0.061728395061728385,43.14814814814814,0)" xlink:href="#O"/><use transform="matrix(0.061728395061728385,0,0,0.061728395061728385,55.493827160493815,0)" xlink:href="#A"/><use transform="matrix(0.061728395061728385,0,0,0.061728395061728385,62.83950617283949,0)" xlink:href="#O"/></g><path fill="#333" d="M30-248c87 1 191-15 191 75 0 78-77 80-158 76V0H30v-248zm33 125c57 0 124 11 124-50 0-59-68-47-124-48v98" id="P"/><g id="f"><use transform="matrix(0.061728395061728385,0,0,0.061728395061728385,0,0)" xlink:href="#P"/><use transform="matrix(0.061728395061728385,0,0,0.061728395061728385,14.814814814814813,0)" xlink:href="#A"/><use transform="matrix(0.061728395061728385,0,0,0.061728395061728385,22.16049382716049,0)" xlink:href="#G"/><use transform="matrix(0.061728395061728385,0,0,0.061728395061728385,34.50617283950616,0)" xlink:href="#H"/><use transform="matrix(0.061728395061728385,0,0,0.061728395061728385,46.85185185185184,0)" xlink:href="#I"/><use transform="matrix(0.061728395061728385,0,0,0.061728395061728385,59.19753086419752,0)" xlink:href="#H"/><use transform="matrix(0.061728395061728385,0,0,0.061728395061728385,71.54320987654319,0)" xlink:href="#J"/><use transform="matrix(0.061728395061728385,0,0,0.061728395061728385,76.41975308641973,0)" xlink:href="#K"/></g><g id="g"><use transform="matrix(0.061728395061728385,0,0,0.061728395061728385,0,0)" xlink:href="#z"/><use transform="matrix(0.061728395061728385,0,0,0.061728395061728385,12.716049382716047,0)" xlink:href="#A"/><use transform="matrix(0.061728395061728385,0,0,0.061728395061728385,20.061728395061724,0)" xlink:href="#B"/><use transform="matrix(0.061728395061728385,0,0,0.061728395061728385,32.407407407407405,0)" xlink:href="#C"/></g><g id="h"><use transform="matrix(0.061728395061728385,0,0,0.061728395061728385,0,0)" xlink:href="#F"/><use transform="matrix(0.061728395061728385,0,0,0.061728395061728385,12.345679012345677,0)" xlink:href="#A"/><use transform="matrix(0.061728395061728385,0,0,0.061728395061728385,19.691358024691354,0)" xlink:href="#G"/><use transform="matrix(0.061728395061728385,0,0,0.061728395061728385,32.03703703703703,0)" xlink:href="#H"/><use transform="matrix(0.061728395061728385,0,0,0.061728395061728385,44.38271604938271,0)" xlink:href="#I"/><use transform="matrix(0.061728395061728385,0,0,0.061728395061728385,56.728395061728385,0)" xlink:href="#H"/><use transform="matrix(0.061728395061728385,0,0,0.061728395061728385,69.07407407407406,0)" xlink:href="#J"/><use transform="matrix(0.061728395061728385,0,0,0.061728395061728385,73.9506172839506,0)" xlink:href="#K"/></g><path fill="#333" d="M24 0v-248h52V0H24" id="Q"/><path fill="#333" d="M220-157c-53 9-28 100-34 157h-49v-107c1-27-5-49-29-50C55-147 81-57 75 0H25l-1-190h47c2 12-1 28 3 38 10-53 101-56 108 0 13-22 24-43 59-42 82 1 51 116 57 194h-49v-107c-1-25-5-48-29-50" id="R"/><path fill="#333" d="M135-194c53 0 70 44 70 98 0 56-19 98-73 100-31 1-45-17-59-34 3 33 2 69 2 105H25l-1-265h48c2 10 0 23 3 31 11-24 29-35 60-35zM114-30c33 0 39-31 40-66 0-38-9-64-40-64-56 0-55 130 0 130" id="S"/><path fill="#333" d="M190-63c-7 42-38 67-86 67-59 0-84-38-90-98-12-110 154-137 174-36l-49 2c-2-19-15-32-35-32-30 0-35 28-38 64-6 74 65 87 74 30" id="T"/><g id="i"><use transform="matrix(0.11111111111111104,0,0,0.11111111111111104,0,0)" xlink:href="#Q"/><use transform="matrix(0.11111111111111104,0,0,0.11111111111111104,11.111111111111104,0)" xlink:href="#R"/><use transform="matrix(0.11111111111111104,0,0,0.11111111111111104,46.66666666666663,0)" xlink:href="#S"/><use transform="matrix(0.11111111111111104,0,0,0.11111111111111104,70.99999999999994,0)" xlink:href="#u"/><use transform="matrix(0.11111111111111104,0,0,0.11111111111111104,93.22222222222214,0)" xlink:href="#T"/><use transform="matrix(0.11111111111111104,0,0,0.11111111111111104,115.44444444444434,0)" xlink:href="#x"/></g><path fill="#333" d="M117-194c89-4 53 116 60 194h-32v-121c0-31-8-49-39-48C34-167 62-67 57 0H25l-1-190h30c1 10-1 24 2 32 11-22 29-35 61-36" id="U"/><path fill="#333" d="M177-190C167-65 218 103 67 71c-23-6-38-20-44-43l32-5c15 47 100 32 89-28v-30C133-14 115 1 83 1 29 1 15-40 15-95c0-56 16-97 71-98 29-1 48 16 59 35 1-10 0-23 2-32h30zM94-22c36 0 50-32 50-73 0-42-14-75-50-75-39 0-46 34-46 75s6 73 46 73" id="V"/><path fill="#333" d="M101-234c-31-9-42 10-38 44h38v23H63V0H32v-167H5v-23h27c-7-52 17-82 69-68v24" id="W"/><path fill="#333" d="M59-47c-2 24 18 29 38 22v24C64 9 27 4 27-40v-127H5v-23h24l9-43h21v43h35v23H59v120" id="X"/><g id="j"><use transform="matrix(0.061728395061728385,0,0,0.061728395061728385,0,0)" xlink:href="#L"/><use transform="matrix(0.061728395061728385,0,0,0.061728395061728385,6.1728395061728385,0)" xlink:href="#U"/><use transform="matrix(0.061728395061728385,0,0,0.061728395061728385,18.518518518518515,0)" xlink:href="#C"/><use transform="matrix(0.061728395061728385,0,0,0.061728395061728385,29.629629629629626,0)" xlink:href="#D"/><use transform="matrix(0.061728395061728385,0,0,0.061728395061728385,34.50617283950617,0)" xlink:href="#V"/><use transform="matrix(0.061728395061728385,0,0,0.061728395061728385,46.85185185185185,0)" xlink:href="#U"/><use transform="matrix(0.061728395061728385,0,0,0.061728395061728385,59.197530864197525,0)" xlink:href="#D"/><use transform="matrix(0.061728395061728385,0,0,0.061728395061728385,64.07407407407406,0)" xlink:href="#W"/><use transform="matrix(0.061728395061728385,0,0,0.061728395061728385,70.2469135802469,0)" xlink:href="#D"/><use transform="matrix(0.061728395061728385,0,0,0.061728395061728385,75.12345679012344,0)" xlink:href="#I"/><use transform="matrix(0.061728395061728385,0,0,0.061728395061728385,87.46913580246911,0)" xlink:href="#U"/><use transform="matrix(0.061728395061728385,0,0,0.061728395061728385,99.81481481481478,0)" xlink:href="#X"/></g><path fill="#333" d="M84 4C-5 8 30-112 23-190h32v120c0 31 7 50 39 49 72-2 45-101 50-169h31l1 190h-30c-1-10 1-25-2-33-11 22-28 36-60 37" id="Y"/><g id="k"><use transform="matrix(0.061728395061728385,0,0,0.061728395061728385,0,0)" xlink:href="#M"/><use transform="matrix(0.061728395061728385,0,0,0.061728395061728385,18.456790123456788,0)" xlink:href="#D"/><use transform="matrix(0.061728395061728385,0,0,0.061728395061728385,23.33333333333333,0)" xlink:href="#U"/><use transform="matrix(0.061728395061728385,0,0,0.061728395061728385,35.679012345679006,0)" xlink:href="#K"/><use transform="matrix(0.061728395061728385,0,0,0.061728395061728385,48.02469135802468,0)" xlink:href="#Y"/><use transform="matrix(0.061728395061728385,0,0,0.061728395061728385,60.37037037037036,0)" xlink:href="#A"/></g><path fill="#333" d="M24-231v-30h32v30H24zM-9 49c24 4 33-6 33-30v-209h32V24c2 40-23 58-65 49V49" id="Z"/><g id="l"><use transform="matrix(0.061728395061728385,0,0,0.061728395061728385,0,0)" xlink:href="#M"/><use transform="matrix(0.061728395061728385,0,0,0.061728395061728385,18.456790123456788,0)" xlink:href="#I"/><use transform="matrix(0.061728395061728385,0,0,0.061728395061728385,30.802469135802465,0)" xlink:href="#Z"/><use transform="matrix(0.061728395061728385,0,0,0.061728395061728385,35.679012345679006,0)" xlink:href="#K"/><use transform="matrix(0.061728395061728385,0,0,0.061728395061728385,48.02469135802468,0)" xlink:href="#Y"/><use transform="matrix(0.061728395061728385,0,0,0.061728395061728385,60.37037037037036,0)" xlink:href="#A"/></g><path fill="#333" d="M30 0v-248h187v28H63v79h144v27H63v87h162V0H30" id="aa"/><path fill="#333" d="M141 0L90-78 38 0H4l68-98-65-92h35l48 74 47-74h35l-64 92 68 98h-35" id="ab"/><path fill="#333" d="M100-194c63 0 86 42 84 106H49c0 40 14 67 53 68 26 1 43-12 49-29l28 8c-11 28-37 45-77 45C44 4 14-33 15-96c1-61 26-98 85-98zm52 81c6-60-76-77-97-28-3 7-6 17-6 28h103zm-32-149c12 18 30 30 39 51-31 2-38-20-57-30-20 10-27 32-59 30 9-22 29-33 41-51h36" id="ac"/><g id="m"><use transform="matrix(0.061728395061728385,0,0,0.061728395061728385,0,0)" xlink:href="#aa"/><use transform="matrix(0.061728395061728385,0,0,0.061728395061728385,14.814814814814813,0)" xlink:href="#ab"/><use transform="matrix(0.061728395061728385,0,0,0.061728395061728385,25.925925925925924,0)" xlink:href="#X"/><use transform="matrix(0.061728395061728385,0,0,0.061728395061728385,32.09876543209876,0)" xlink:href="#A"/><use transform="matrix(0.061728395061728385,0,0,0.061728395061728385,39.444444444444436,0)" xlink:href="#ac"/><use transform="matrix(0.061728395061728385,0,0,0.061728395061728385,51.79012345679011,0)" xlink:href="#E"/><use transform="matrix(0.061728395061728385,0,0,0.061728395061728385,70.2469135802469,0)" xlink:href="#K"/></g><path fill="#fff" d="M233-177c-1 41-23 64-60 70L243 0h-38l-65-103H63V0H30v-248c88 3 205-21 203 71zM63-129c60-2 137 13 137-47 0-61-80-42-137-45v92" id="ad"/><path fill="#fff" d="M27 0v-27h64v-190l-56 39v-29l58-41h29v221h61V0H27" id="ae"/><g id="n"><use transform="matrix(0.06172839506172839,0,0,0.06172839506172839,0,0)" xlink:href="#ad"/><use transform="matrix(0.06172839506172839,0,0,0.06172839506172839,15.987654320987653,0)" xlink:href="#ae"/></g><path fill="#fff" d="M101-251c82-7 93 87 43 132L82-64C71-53 59-42 53-27h129V0H18c2-99 128-94 128-182 0-28-16-43-45-43s-46 15-49 41l-32-3c6-41 34-60 81-64" id="af"/><g id="o"><use transform="matrix(0.06172839506172839,0,0,0.06172839506172839,0,0)" xlink:href="#ad"/><use transform="matrix(0.06172839506172839,0,0,0.06172839506172839,15.987654320987653,0)" xlink:href="#af"/></g><path fill="#fff" d="M126-127c33 6 58 20 58 59 0 88-139 92-164 29-3-8-5-16-6-25l32-3c6 27 21 44 54 44 32 0 52-15 52-46 0-38-36-46-79-43v-28c39 1 72-4 72-42 0-27-17-43-46-43-28 0-47 15-49 41l-32-3c6-42 35-63 81-64 48-1 79 21 79 65 0 36-21 52-52 59" id="ag"/><g id="p"><use transform="matrix(0.06172839506172839,0,0,0.06172839506172839,0,0)" xlink:href="#ad"/><use transform="matrix(0.06172839506172839,0,0,0.06172839506172839,15.987654320987653,0)" xlink:href="#ag"/></g></defs></g></svg>