<svg id="visual" viewBox="0 0 960 540" width="960" height="540" xmlns="http://www.w3.org/2000/svg" xmlns:xlink="http://www.w3.org/1999/xlink" version="1.1"><rect x="0" y="0" width="960" height="540" fill="#FFFFFF"></rect><defs><linearGradient id="grad1_0" x1="43.8%" y1="0%" x2="100%" y2="100%"><stop offset="14.444444444444446%" stop-color="#ffffff" stop-opacity="1"></stop><stop offset="85.55555555555554%" stop-color="#ffffff" stop-opacity="1"></stop></linearGradient></defs><defs><linearGradient id="grad2_0" x1="0%" y1="0%" x2="56.3%" y2="100%"><stop offset="14.444444444444446%" stop-color="#ffffff" stop-opacity="1"></stop><stop offset="85.55555555555554%" stop-color="#ffffff" stop-opacity="1"></stop></linearGradient></defs><g transform="translate(960, 0)"><path d="M0 297C-38.7 293 -77.4 289.1 -113.7 274.4C-149.9 259.7 -183.7 234.3 -202.9 202.9C-222.2 171.6 -227 134.3 -240.2 99.5C-253.5 64.7 -275.2 32.3 -297 0L0 0Z" fill="#E71D36"></path></g><g transform="translate(0, 540)"><path d="M0 -297C36.6 -283.3 73.2 -269.6 104.5 -252.2C135.7 -234.9 161.5 -213.9 191.6 -191.6C221.7 -169.4 256.1 -145.8 274.4 -113.7C292.7 -81.5 294.8 -40.8 297 0L0 0Z" fill="#E71D36"></path></g></svg>