<?xml version="1.0" encoding="UTF-8"?>
<svg id="Layer_1" data-name="Layer 1" xmlns="http://www.w3.org/2000/svg" viewBox="0 0 1280 1280">
  <defs>
    <style>
      .cls-1 {
        fill: #fff;
      }

      .cls-2 {
        fill: #f3f3f3;
      }
    </style>
  </defs>
  <path class="cls-2" d="m426.64,535.79v230.91c0,1.97,1.05,3.78,2.75,4.77l199.98,115.46c1.86,1.07,3.95.92,5.56-.04l-206.05-355.53c-1.33.98-2.24,2.54-2.24,4.42Z"/>
  <path class="cls-1" d="m637.62,882.16v-90.11c0-2.73-2.01-5.02-4.71-5.45-42.36-6.72-74.74-43.4-74.74-87.65,0-1.35.04-2.69.1-4.02l-.1-.06v-89.51c0-1.97-1.05-3.78-2.75-4.77l-120.52-69.58c-2.04-1.18-4.36-.88-6.02.34l206.05,355.53c1.58-.93,2.7-2.64,2.7-4.73Z"/>
  <path class="cls-2" d="m848.74,507.41l-199.99-115.46c-1.7-.98-3.8-.98-5.5,0l-199.99,115.46c-1.78,1.03-2.68,2.8-2.74,4.59h410.95c-.05-1.79-.96-3.57-2.74-4.59Z"/>
  <path class="cls-1" d="m443.26,516.93l199.99,115.46c1.7.98,3.8.98,5.5,0l199.99-115.46c1.89-1.09,2.8-3.03,2.74-4.93h-410.95c-.06,1.91.85,3.84,2.74,4.93Z"/>
  <path class="cls-2" d="m858.11,531.41l-119.76,69.14c-1.7.98-2.75,2.8-2.75,4.76v89.96l-.3.17c.06,1.3.1,2.6.1,3.91,0,44.44-32.67,81.25-75.3,87.74-2.71.41-4.74,2.7-4.74,5.44v90.04c0,1.71.75,3.15,1.89,4.13l206.9-354.93c-1.66-1.24-3.99-1.54-6.04-.36Z"/>
  <path class="cls-1" d="m864.15,531.77l-206.9,354.93c1.67,1.45,4.17,1.89,6.36.63l200-115.47c1.7-.98,2.75-2.8,2.75-4.76v-230.94c0-1.87-.89-3.42-2.2-4.4Z"/>
</svg>